<svg width="28" height="28" viewBox="0 0 29 28" fill="none" xmlns="http://www.w3.org/2000/svg">
<path fill-rule="evenodd" clip-rule="evenodd" d="M18.8354 19.8025H10.4121C9.92911 19.8025 9.53711 19.4105 9.53711 18.9275C9.53711 18.4445 9.92911 18.0525 10.4121 18.0525H18.8354C19.3184 18.0525 19.7104 18.4445 19.7104 18.9275C19.7104 19.4105 19.3184 19.8025 18.8354 19.8025" fill="#78797E"/>
<path fill-rule="evenodd" clip-rule="evenodd" d="M18.8354 14.9182H10.4121C9.92911 14.9182 9.53711 14.5262 9.53711 14.0432C9.53711 13.5602 9.92911 13.1682 10.4121 13.1682H18.8354C19.3184 13.1682 19.7104 13.5602 19.7104 14.0432C19.7104 14.5262 19.3184 14.9182 18.8354 14.9182" fill="#78797E"/>
<path fill-rule="evenodd" clip-rule="evenodd" d="M13.6263 10.0454H10.4121C9.92911 10.0454 9.53711 9.65341 9.53711 9.17041C9.53711 8.68741 9.92911 8.29541 10.4121 8.29541H13.6263C14.1093 8.29541 14.5013 8.68741 14.5013 9.17041C14.5013 9.65341 14.1093 10.0454 13.6263 10.0454" fill="#78797E"/>
<mask id="mask0_352_6154" style="mask-type:luminance" maskUnits="userSpaceOnUse" x="4" y="2" width="22" height="24">
<path fill-rule="evenodd" clip-rule="evenodd" d="M4 2.3335H25.1922V25.5616H4V2.3335Z" fill="white"/>
</mask>
<g mask="url(#mask0_352_6154)">
<path fill-rule="evenodd" clip-rule="evenodd" d="M19.0605 4.08325L10.09 4.08792C7.374 4.10425 5.75 5.78425 5.75 8.58309V19.3118C5.75 22.1293 7.38917 23.8116 10.132 23.8116L19.1025 23.8081C21.8185 23.7918 23.4425 22.1094 23.4425 19.3118V8.58309C23.4425 5.76559 21.8045 4.08325 19.0605 4.08325ZM10.1332 25.5616C6.46517 25.5616 4 23.0498 4 19.3118V8.58308C4 4.81125 6.38817 2.36009 10.0842 2.33792L19.0593 2.33325H19.0605C22.7285 2.33325 25.1925 4.84509 25.1925 8.58308V19.3118C25.1925 23.0824 22.8043 25.5348 19.1083 25.5581L10.1332 25.5616Z" fill="#78797E"/>
</g>
</svg>
