<svg width="9" height="13" viewBox="0 0 9 13" fill="none" xmlns="http://www.w3.org/2000/svg">
<path d="M5.28076 13.0034H4.27002V12.0513C2.0874 11.9121 0.725098 10.7622 0.717773 9.03369H2.50488C2.5708 9.86865 3.2373 10.4619 4.27002 10.5791V7.37842L3.56689 7.20264C1.875 6.79248 0.952148 5.79639 0.952148 4.33154C0.952148 2.60303 2.19727 1.4751 4.27002 1.29199V0.28125H5.28076V1.29199C7.2583 1.46777 8.53271 2.64697 8.56934 4.29492H6.81885C6.79688 3.51855 6.17432 2.90332 5.28076 2.78613V5.82568L6.00586 5.97949C7.85156 6.41895 8.75977 7.35645 8.75977 8.90186C8.75977 10.7256 7.49268 11.8608 5.28076 12.0366V13.0034ZM6.97998 9.09229C6.97998 8.28662 6.44531 7.80322 5.28076 7.56885V10.5938C6.35742 10.5278 6.97998 9.97119 6.97998 9.09229ZM2.75391 4.18506C2.75391 4.91748 3.28125 5.4082 4.27002 5.61328V2.77881C3.39111 2.83008 2.75391 3.40869 2.75391 4.18506Z" fill="#32E55E"/>
</svg>
