<svg xmlns="http://www.w3.org/2000/svg" width="899" height="217" fill="none"><g clip-path="url(#a)"><path fill="url(#b)" d="m870.02 43.07-1-13.36V15.36l-839.17-1-1 28.71H14.5v130h14.35v-9.72 34.99h14.36v3.44h811.45v-3.44h14.36v-10.92l1-14.35h14.36v-130z"/><path fill="#FEFF01" d="M227.993-30.857h98.731V18h-98.731z"/><path fill="#E83174" d="M57.36 28.71h798.09V14.36H43v14.35z"/><path fill="#000" d="M28.72 28.71H14.36v14.36h14.36z"/><path fill="#FEFF01" d="M28.72 43.07H14.36v14.36h14.36z"/><path fill="#000" d="M0 50.25v122.82h14.36v-130H0zM43.07 14.36H28.71v14.36h14.36z"/><path fill="#FEFF01" d="M43.07 28.71H28.71v14.36h14.36z"/><path fill="#000" d="M28.72 173.07H14.36v14.36h14.36z"/><path fill="#FF7131" d="M28.72 158.71H14.36v14.36h14.36z"/><path fill="#000" d="M43.07 187.42H28.71v14.36h14.36z"/><path fill="#FF7131" d="M43.07 173.07H28.71v14.36h14.36zM869.88 173.07h-14.36v14.36h14.36z"/><path fill="#000" d="M884.24 28.71h-14.36v14.36h14.36z"/><path fill="#FEFF01" d="M884.24 43.07h-14.36v14.36h14.36z"/><path fill="#000" d="M884.24 43.07v130h14.35v-130zM869.88 14.36h-14.36v14.36h14.36z"/><path fill="#FEFF01" d="M869.88 28.71h-14.36v14.36h14.36z"/><path fill="#000" d="M843.3 14.36h12.22V0H43.07v14.36zM884.24 173.07h-14.36v14.36h14.36z"/><path fill="#FF7131" d="M884.24 158.71h-14.36v14.36h14.36z"/><path fill="#000" d="M869.88 187.42h-14.36v14.36h14.36zM841.17 201.78H43.07v14.36h812.45v-14.36z"/><path fill="#FF7131" d="M855.45 187.42H43v14.36h812.45z"/><path fill="#FEFF01" d="M855.45 14.36H43v14.36h812.45z"/></g><defs><linearGradient id="b" x1="449.44" x2="449.44" y1="201.78" y2="14.36" gradientUnits="userSpaceOnUse"><stop stop-color="#FFBA01"/><stop offset="1" stop-color="#FFBA01"/></linearGradient><clipPath id="a"><path fill="#fff" d="M0 0h898.59v216.14H0z"/></clipPath></defs></svg>