<svg xmlns="http://www.w3.org/2000/svg" width="160" height="160" fill="none"><g filter="url(#a)"><path fill="#000" fill-rule="evenodd" d="M119.095 16.637h-.042V17h.042zm0 112.726h8.637v-8.631h8.637v-8.637H145v-78.19h-8.631v-8.637h-8.637v-8.631h-8.637V8h-78.19v8.637h-8.637v8.631h-8.631v8.637H15v78.19h8.637v8.637h8.631v8.631h8.637V138h78.19zm0 0V129h-.042v.363z" clip-rule="evenodd"/></g><g clip-path="url(#b)"><path fill="url(#c)" d="M129.095 33.542 126 17H33v16.274L21.5 35.5 21 111l10 1 1.5 1.5 1.13 13.431h8.638V129h77.401l.789-2.069L126 125l3.095-13.268 8.637-.528V34.299z"/><path fill="#E83174" d="M49.5 25.268h69.553v-8.631h-78.19v8.63z"/><path fill="#000" d="M32.274 25.268h-8.637v8.637h8.637z"/><path fill="#F69" d="M32.274 33.905h-8.637v8.637h8.637z"/><path fill="#000" d="M15 38.224v73.871h8.637v-78.19H15zM40.905 16.637h-8.637v8.637h8.637z"/><path fill="#F69" d="M40.905 25.268h-8.637v8.637h8.637z"/><path fill="#000" d="M32.274 112.095h-8.637v8.637h8.637z"/><path fill="#761B7B" d="M32.274 103.458h-8.637v8.637h8.637z"/><path fill="#000" d="M40.905 120.726h-8.637v8.637h8.637z"/><path fill="#761B7B" d="M40.905 112.095h-8.637v8.637h8.637zM127.732 112.095h-8.637v8.637h8.637z"/><path fill="#000" d="M136.369 25.268h-8.637v8.637h8.637z"/><path fill="#F69" d="M136.369 33.905h-8.637v8.637h8.637z"/><path fill="#000" d="M136.369 33.905v78.19H145v-78.19zM127.732 16.637h-8.637v8.637h8.637z"/><path fill="#F69" d="M127.732 25.268h-8.637v8.637h8.637z"/><path fill="#000" d="M111.745 16.637h7.35V8h-78.19v8.637zM136.369 112.095h-8.637v8.637h8.637z"/><path fill="#761B7B" d="M136.369 103.458h-8.637v8.637h8.637z"/><path fill="#000" d="M127.732 120.726h-8.637v8.637h8.637zM110.464 129.363H40.905V138h78.19v-8.637z"/><path fill="#761B7B" d="M119.053 120.726h-78.19v8.637h78.19z"/><path fill="#F69" d="M119.053 16.637h-78.19v8.637h78.19z"/></g><path fill="#fff" stroke="#761B7B" stroke-width="3" d="M65.737 47.807c-1.59-1.59-4.165-1.736-5.936-.44h-.09l-.44.44-4.477 4.478c-1.787 1.787-1.693 4.686-.069 6.543l.033.037.036.035 14.253 14.253-14.253 14.254 1.059 1.059-1.06-1.06c-1.786 1.787-1.692 4.687-.068 6.543l.033.038.036.035 4.328 4.328c1.786 1.787 4.686 1.692 6.542.068l.038-.033.035-.035L79.99 84.097 94.243 98.35c1.787 1.787 4.687 1.692 6.543.068l.038-.033.035-.035 4.328-4.328c1.787-1.787 1.692-4.686.068-6.543l-.03-.034-.033-.033-14.264-14.42 14.259-14.258c1.787-1.787 1.692-4.687.068-6.543l-.033-.037-.035-.036-4.328-4.328c-1.787-1.786-4.687-1.692-6.543-.068l-.037.033-.036.035L79.99 62.045 65.737 47.807Z"/><defs><linearGradient id="c" x1="80.363" x2="80.363" y1="129.726" y2="17" gradientUnits="userSpaceOnUse"><stop stop-color="#BE34DA"/><stop offset="1" stop-color="#F03178"/></linearGradient><clipPath id="b"><path fill="#fff" d="M15 8h130v130H15z"/></clipPath><filter id="a" width="160" height="160" x="0" y="0" color-interpolation-filters="sRGB" filterUnits="userSpaceOnUse"><feFlood flood-opacity="0" result="BackgroundImageFix"/><feColorMatrix in="SourceAlpha" result="hardAlpha" values="0 0 0 0 0 0 0 0 0 0 0 0 0 0 0 0 0 0 127 0"/><feOffset dy="7"/><feGaussianBlur stdDeviation="7.5"/><feComposite in2="hardAlpha" operator="out"/><feColorMatrix values="0 0 0 0 0 0 0 0 0 0 0 0 0 0 0 0 0 0 1 0"/><feBlend in2="BackgroundImageFix" result="effect1_dropShadow_0_3639"/><feBlend in="SourceGraphic" in2="effect1_dropShadow_0_3639" result="shape"/></filter></defs></svg>