<svg xmlns="http://www.w3.org/2000/svg" width="45" height="47" fill="none"><mask id="a" width="45" height="47" x="0" y="0" fill="#000" maskUnits="userSpaceOnUse"><path fill="#fff" d="M0 0h45v47H0z"/><path fill-rule="evenodd" d="M41.45 23.09q.018-.426.018-.856C41.468 11.611 32.857 3 22.234 3S3 11.611 3 22.234q0 .43.019.856-.02.426-.019.856C3 34.568 11.611 43.18 22.234 43.18s19.234-8.611 19.234-19.234q0-.43-.018-.856" clip-rule="evenodd"/></mask><path fill="#000" fill-rule="evenodd" d="M41.45 23.09q.018-.426.018-.856C41.468 11.611 32.857 3 22.234 3S3 11.611 3 22.234q0 .43.019.856-.02.426-.019.856C3 34.568 11.611 43.18 22.234 43.18s19.234-8.611 19.234-19.234q0-.43-.018-.856" clip-rule="evenodd"/><path fill="#000" d="m41.45 23.09-2.998-.131a3 3 0 0 0 0 .262zm-38.431 0 2.997.131a3 3 0 0 0 0-.262zm35.45-.856q0 .365-.017.725l5.995.262q.021-.49.021-.987zM22.233 6c8.966 0 16.234 7.268 16.234 16.234h6C44.468 9.954 34.514 0 22.234 0zM6 22.234C6 13.268 13.268 6 22.234 6V0C9.954 0 0 9.955 0 22.234zm.016.725Q6 22.599 6 22.234H0q0 .496.022.987zM6 23.946q0-.365.016-.725L.022 22.96a23 23 0 0 0-.022.987zM22.234 40.18C13.268 40.18 6 32.912 6 23.946H0C0 36.226 9.955 46.18 22.234 46.18zm16.234-16.234c0 8.966-7.268 16.234-16.234 16.234v6c12.28 0 22.234-9.955 22.234-22.234zm-.016-.725q.016.36.016.725h6q0-.496-.021-.987z" mask="url(#a)"/><path fill="#F78701" d="M22.234 43.18c10.623 0 19.234-8.611 19.234-19.234S32.857 4.712 22.234 4.712 3 13.323 3 23.946C3 34.568 11.611 43.18 22.234 43.18"/><path fill="#FEFF01" d="M22.234 41.468c10.623 0 19.234-8.611 19.234-19.234S32.857 3 22.234 3 3 11.611 3 22.234s8.611 19.234 19.234 19.234"/><path fill="#FFA300" d="M22.079 38.088c8.756 0 15.853-7.098 15.853-15.854S30.835 6.381 22.08 6.381 6.226 13.479 6.226 22.234c0 8.756 7.097 15.854 15.853 15.854"/><path fill="#F78701" d="M22.234 7.8c8.518 0 15.465 6.719 15.837 15.145q.016-.353.017-.71c0-8.755-7.098-15.853-15.854-15.853S6.381 13.479 6.381 22.234q0 .357.016.71c.372-8.426 7.32-15.145 15.837-15.145z"/><path fill="#FF790F" d="m15.808 27.508-.293-.226v1.377c.045.067.09.135.158.203l.022.022.023.023.023.022.022.023.023.022c.112.136.293.294.496.497s.451.428.767.631a10 10 0 0 0 1.58.925 9.3 9.3 0 0 0 1.736.587v1.624c0 .316.158.497.497.497h2.12c.361 0 .542-.158.542-.497V31.66c.721-.135 1.398-.338 1.985-.631a5.7 5.7 0 0 0 1.579-1.128c.451-.452.79-.97 1.038-1.557a4.6 4.6 0 0 0 .36-1.67v-.225q0-1.15-.405-1.963c-.271-.541-.655-.992-1.15-1.399a8.6 8.6 0 0 0-1.738-1.015 21 21 0 0 0-2.21-.812c-.407-.135-.768-.248-1.084-.36-.316-.114-.564-.249-.79-.362a1.8 1.8 0 0 1-.473-.428.9.9 0 0 1-.135-.294c-.023-.067-.023-.158-.023-.225 0-.203.045-.384.135-.52a.87.87 0 0 1 .407-.338c.157-.09.36-.157.586-.203.226-.045.451-.067.7-.067.247 0 .473.045.721.113q.338.1.677.27c.203.113.406.226.587.361.18.136.36.27.496.384l.113.09c.113.09.203.158.293.226.09.067.18.09.293.09.136 0 .248-.068.384-.18l1.737-1.805c.09-.113.18-.203.226-.271l-.023-1.376-1.083.36a8 8 0 0 0-.722-.45 9 9 0 0 0-1.195-.52 8 8 0 0 0-1.241-.315V13.86a.44.44 0 0 0-.18-.361c-.136-.09-.249-.136-.362-.136h-2.12a.53.53 0 0 0-.384.136.46.46 0 0 0-.135.338v1.534c-.654.135-1.241.316-1.76.587s-.97.586-1.33.97c-.362.383-.633.812-.836 1.286-.157.406-.27.857-.293 1.353v.226q0 .98.338 1.76a4.4 4.4 0 0 0 1.016 1.443c.45.451 1.015.835 1.692 1.196.677.36 1.466.7 2.368.992.204.068.452.158.722.249.271.09.542.225.813.36.248.136.473.294.654.474a.93.93 0 0 1 .248.429c.023.068.023.113.023.18 0 .203-.023.406-.09.587a1.7 1.7 0 0 1-.317.496 2 2 0 0 1-.609.339c-.27.09-.586.135-.97.135a3.6 3.6 0 0 1-1.195-.203 5.6 5.6 0 0 1-1.151-.587c-.248-.18-.474-.338-.677-.518a5 5 0 0 0-.496-.406 4 4 0 0 0-.27-.204.4.4 0 0 0-.226-.067c-.09 0-.226.045-.384.158z"/><path fill="#FEFF01" d="M28.126 23.064c-.27-.542-.654-.993-1.15-1.399a8.6 8.6 0 0 0-1.738-1.015 21 21 0 0 0-2.21-.812c-.407-.136-.768-.248-1.083-.361-.316-.113-.564-.248-.79-.361a1.8 1.8 0 0 1-.474-.429.9.9 0 0 1-.135-.293c-.023-.068-.023-.158-.023-.226 0-.203.045-.383.136-.518a.87.87 0 0 1 .406-.339 2 2 0 0 1 .586-.203c.226-.045.451-.068.7-.068s.473.046.722.113q.337.102.676.27c.203.114.406.227.587.362s.36.27.496.383l.113.09c.113.09.203.159.293.226.09.068.18.09.294.09.135 0 .248-.067.383-.18l1.737-1.805c.09-.113.18-.203.226-.27a.5.5 0 0 0-.09-.136c-.113-.135-.249-.27-.407-.428-.18-.159-.383-.294-.609-.452a8 8 0 0 0-.722-.45 9 9 0 0 0-1.195-.52 7.7 7.7 0 0 0-1.241-.316v-1.489a.44.44 0 0 0-.18-.36c-.136-.09-.249-.136-.361-.136h-2.121a.53.53 0 0 0-.384.136.46.46 0 0 0-.135.338v1.534c-.654.135-1.24.316-1.76.587-.519.27-.97.586-1.33.97a4.4 4.4 0 0 0-.835 1.285 4.3 4.3 0 0 0-.294 1.354v.226q0 .98.339 1.76a4.4 4.4 0 0 0 1.015 1.443c.451.451 1.015.835 1.692 1.196.677.36 1.466.7 2.369.992.203.068.45.158.721.248s.542.226.813.361c.248.136.473.294.654.474a.93.93 0 0 1 .248.429.5.5 0 0 1 .023.18c0 .203-.023.406-.09.587a1.7 1.7 0 0 1-.316.496 2 2 0 0 1-.61.339c-.27.09-.586.135-.97.135-.406 0-.812-.068-1.195-.203a5.6 5.6 0 0 1-1.15-.587c-.249-.18-.475-.338-.678-.518a5 5 0 0 0-.496-.407 4 4 0 0 0-.27-.203.4.4 0 0 0-.226-.067c-.09 0-.226.045-.384.158l-1.962 1.827c-.068.068-.136.135-.158.18.045.068.09.136.158.203l.022.023.023.023.022.022.023.023.022.022c.113.136.294.294.497.497s.45.428.767.631c.496.361 1.015.655 1.579.925a9.3 9.3 0 0 0 1.737.587v1.624c0 .316.158.496.496.496h2.12c.362 0 .542-.157.542-.496v-1.579c.722-.136 1.399-.338 1.986-.632a5.7 5.7 0 0 0 1.579-1.128c.451-.451.79-.97 1.038-1.556a4.6 4.6 0 0 0 .36-1.67v-.225c-.022-.812-.157-1.467-.428-2.008"/></svg>