<svg width="90" height="86" viewBox="0 0 90 86" fill="none" xmlns="http://www.w3.org/2000/svg">
<path d="M44.7699 84.0356C68.5489 84.0356 87.8257 65.7593 87.8257 43.2144C87.8257 20.6695 68.5489 2.39331 44.7699 2.39331C20.9908 2.39331 1.71407 20.6695 1.71407 43.2144C1.71407 65.7593 20.9908 84.0356 44.7699 84.0356Z" stroke="url(#paint0_linear_85_1620)" stroke-width="3.35" stroke-miterlimit="10"/>
<path d="M61.8548 71.4138C60.8878 69.6347 60.0608 67.7856 59.1638 65.9785C58.407 64.4515 57.6642 62.9106 56.9074 61.3836C56.7252 61.0334 56.6551 60.6972 56.6831 60.2769C56.7952 58.9181 56.8232 57.5593 56.8933 56.2144C57.0054 53.875 57.1316 51.5356 57.2437 49.1961C57.3138 47.6412 57.3839 46.1002 57.4539 44.5313C57.2577 44.5453 57.2577 44.7134 57.2017 44.8114C54.9171 48.916 52.6326 53.0205 50.3761 57.139C50.0958 57.6573 49.7454 57.8535 49.1427 57.8395C47.8673 57.7974 46.6059 57.8395 45.3305 57.7414C45.1062 57.7274 44.9661 57.6713 44.8259 57.4472C42.9479 54.3793 41.2099 51.2554 39.3739 48.1595C38.4348 46.5765 37.5238 44.9935 36.5988 43.4106C36.5708 43.3685 36.5287 43.3125 36.4867 43.2565C36.4867 44.181 36.4867 45.0776 36.4867 45.9741C36.5287 49.8685 36.5567 53.7629 36.6128 57.6713C36.6268 58.9321 36.6549 60.1789 36.6969 61.4397C36.6969 61.8459 36.5708 62.028 36.1223 62.042C33.9919 62.0841 31.8615 62.1541 29.7452 62.2101C28.3436 62.2522 26.9281 62.2802 25.5125 62.2942C24.9659 62.2942 24.9099 62.2382 24.9099 61.6918C24.9659 56.2425 25.022 50.7931 25.078 45.3438C25.092 43.4526 25.1061 41.5474 25.1201 39.6563C25.1481 36.6304 25.1621 33.5905 25.2042 30.5647C25.2042 30.2985 25.078 30.1864 24.8958 30.0604C22.6814 28.4073 20.4809 26.7543 18.2664 25.0873C18.1824 25.0172 18.0983 24.9612 18.0142 24.8912C17.832 24.7371 17.7899 24.5269 17.874 24.3168C17.9581 24.1207 18.1403 24.1067 18.3366 24.1067C19.9483 24.1627 21.5461 24.2328 23.1579 24.3028C25.064 24.3729 26.9841 24.4569 28.8903 24.541C31.371 24.639 33.8518 24.7231 36.3325 24.8071C36.6549 24.8071 36.781 25.0313 36.9072 25.2554C37.9723 27.1326 39.0515 29.0097 40.1167 30.8869C42.5834 35.2155 45.0642 39.5442 47.5309 43.8729C47.573 43.9569 47.6291 44.0269 47.6851 44.111C47.8814 44.055 47.9234 43.8728 47.9934 43.7468C51.1049 38.1713 54.2444 32.5959 57.2998 26.9785C57.6782 26.278 58.0847 26.1099 58.8275 26.1239C63.3965 26.1239 67.9516 26.0959 72.5207 26.0819C72.6608 26.0819 72.801 26.0819 72.9412 26.0819C73.1794 26.0819 73.3756 26.166 73.4457 26.3901C73.5298 26.6142 73.3756 26.7543 73.2075 26.8804C72.1983 27.7069 71.2032 28.5474 70.1941 29.3739C69.4092 30.0183 68.6384 30.6767 67.8395 31.3071C67.5872 31.5032 67.5031 31.7134 67.5031 32.0216C67.5031 39.7123 67.5031 47.403 67.5031 55.0938C67.5031 56.5086 67.4611 57.9375 67.5031 59.3524C67.5311 60.1929 67.1107 60.8513 66.8023 61.5377C65.4148 64.5916 63.9992 67.6315 62.5977 70.6854C62.4855 70.9375 62.3454 71.1897 62.1632 71.4138H61.8829H61.8548Z" fill="url(#paint1_linear_85_1620)"/>
<defs>
<linearGradient id="paint0_linear_85_1620" x1="-0.640548" y1="43.2144" x2="90.1663" y2="43.2144" gradientUnits="userSpaceOnUse">
<stop stop-color="#FF7300"/>
<stop offset="0.18" stop-color="#F97C00"/>
<stop offset="0.47" stop-color="#EA9502"/>
<stop offset="0.55" stop-color="#E59E03"/>
<stop offset="0.87" stop-color="#E5C500"/>
<stop offset="0.99" stop-color="#BF6F00"/>
</linearGradient>
<linearGradient id="paint1_linear_85_1620" x1="17.8039" y1="47.7532" x2="73.4177" y2="47.7532" gradientUnits="userSpaceOnUse">
<stop stop-color="#FF7300"/>
<stop offset="0.18" stop-color="#F97C00"/>
<stop offset="0.47" stop-color="#EA9502"/>
<stop offset="0.55" stop-color="#E59E03"/>
<stop offset="0.87" stop-color="#E5C500"/>
<stop offset="0.99" stop-color="#BF6F00"/>
</linearGradient>
</defs>
</svg>
