<svg width="97" height="93" viewBox="0 0 97 93" fill="none" xmlns="http://www.w3.org/2000/svg">
<path d="M48.2301 87.0269C72.0092 87.0269 91.2859 68.7506 91.2859 46.2058C91.2859 23.6609 72.0092 5.38464 48.2301 5.38464C24.4511 5.38464 5.17432 23.6609 5.17432 46.2058C5.17432 68.7506 24.4511 87.0269 48.2301 87.0269Z" stroke="url(#paint0_linear_78_3)" stroke-width="10.35" stroke-miterlimit="10"/>
<path d="M65.3151 74.4051C64.348 72.626 63.5211 70.7769 62.6241 68.9698C61.8672 67.4428 61.1244 65.9019 60.3676 64.375C60.1854 64.0247 60.1153 63.6885 60.1434 63.2683C60.2555 61.9094 60.2835 60.5506 60.3536 59.2058C60.4657 56.8663 60.5918 54.5269 60.704 52.1875C60.774 50.6325 60.8441 49.0916 60.9142 47.5226C60.718 47.5366 60.718 47.7047 60.6619 47.8028C58.3774 51.9073 56.0929 56.0118 53.8363 60.1304C53.556 60.6487 53.2056 60.8448 52.603 60.8308C51.3276 60.7888 50.0662 60.8308 48.7907 60.7327C48.5665 60.7187 48.4264 60.6627 48.2862 60.4385C46.4081 57.3706 44.6702 54.2467 42.8341 51.1508C41.8951 49.5678 40.9841 47.9849 40.0591 46.4019C40.031 46.3599 39.989 46.3038 39.9469 46.2478C39.9469 47.1724 39.9469 48.0689 39.9469 48.9655C39.989 52.8599 40.017 56.7543 40.0731 60.6627C40.0871 61.9235 40.1151 63.1702 40.1571 64.431C40.1571 64.8372 40.031 65.0194 39.5825 65.0334C37.4522 65.0754 35.3218 65.1454 33.2054 65.2015C31.8039 65.2435 30.3883 65.2715 28.9728 65.2855C28.4262 65.2855 28.3701 65.2295 28.3701 64.6832C28.4262 59.2338 28.4822 53.7844 28.5383 48.3351C28.5523 46.4439 28.5663 44.5388 28.5803 42.6476C28.6084 39.6217 28.6224 36.5819 28.6644 33.556C28.6644 33.2898 28.5383 33.1778 28.3561 33.0517C26.1416 31.3987 23.9412 29.7456 21.7267 28.0786C21.6426 28.0086 21.5585 27.9525 21.4744 27.8825C21.2922 27.7284 21.2502 27.5183 21.3343 27.3081C21.4184 27.112 21.6006 27.098 21.7968 27.098C23.4086 27.1541 25.0064 27.2241 26.6182 27.2941C28.5243 27.3642 30.4444 27.4482 32.3505 27.5323C34.8313 27.6303 37.312 27.7144 39.7928 27.7985C40.1151 27.7985 40.2413 28.0226 40.3674 28.2467C41.4326 30.1239 42.5118 32.001 43.5769 33.8782C46.0437 38.2069 48.5245 42.5355 50.9912 46.8642C51.0332 46.9482 51.0893 47.0183 51.1454 47.1023C51.3416 47.0463 51.3836 46.8642 51.4537 46.7381C54.5651 41.1627 57.7046 35.5872 60.76 29.9698C61.1385 29.2694 61.5449 29.1013 62.2877 29.1153C66.8568 29.1153 71.4118 29.0872 75.9809 29.0732C76.1211 29.0732 76.2612 29.0732 76.4014 29.0732C76.6397 29.0732 76.8359 29.1573 76.9059 29.3814C76.99 29.6056 76.8359 29.7457 76.6677 29.8717C75.6586 30.6982 74.6635 31.5388 73.6544 32.3653C72.8695 33.0097 72.0986 33.6681 71.2997 34.2985C71.0474 34.4946 70.9634 34.7047 70.9634 35.0129C70.9634 42.7036 70.9634 50.3944 70.9634 58.0851C70.9634 59.5 70.9213 60.9288 70.9634 62.3437C70.9914 63.1842 70.5709 63.8426 70.2626 64.5291C68.875 67.5829 67.4595 70.6228 66.0579 73.6767C65.9458 73.9288 65.8056 74.181 65.6234 74.4051H65.3431H65.3151Z" fill="url(#paint1_linear_78_3)"/>
<defs>
<linearGradient id="paint0_linear_78_3" x1="2.8197" y1="46.2058" x2="93.6265" y2="46.2058" gradientUnits="userSpaceOnUse">
<stop stop-color="#FF7300"/>
<stop offset="0.18" stop-color="#F97C00"/>
<stop offset="0.47" stop-color="#EA9502"/>
<stop offset="0.55" stop-color="#E59E03"/>
<stop offset="0.87" stop-color="#E5C500"/>
<stop offset="0.99" stop-color="#BF6F00"/>
</linearGradient>
<linearGradient id="paint1_linear_78_3" x1="21.2642" y1="50.7446" x2="76.8779" y2="50.7446" gradientUnits="userSpaceOnUse">
<stop stop-color="#FF7300"/>
<stop offset="0.18" stop-color="#F97C00"/>
<stop offset="0.47" stop-color="#EA9502"/>
<stop offset="0.55" stop-color="#E59E03"/>
<stop offset="0.87" stop-color="#E5C500"/>
<stop offset="0.99" stop-color="#BF6F00"/>
</linearGradient>
</defs>
</svg>
