<svg width="461" height="31" viewBox="0 0 461 31" fill="none" xmlns="http://www.w3.org/2000/svg">
<path d="M14.4736 30.36C5.67359 30.36 0.633594 24.24 0.633594 15.88V15.56C0.633594 7.2 6.27359 0.96 14.4736 0.96C20.1536 0.96 25.2336 3.6 26.1136 10.04H22.6336C21.8336 5.48 18.7136 3.72 14.5536 3.72C7.99359 3.72 4.23359 8.52 4.23359 15.52V15.84C4.23359 22.92 7.75359 27.56 14.4736 27.56C20.6736 27.56 23.3536 23.52 23.4736 18.44H15.1136V15.56H26.8736V17.68C26.8736 25.96 21.7936 30.36 14.4736 30.36ZM28.9361 30L38.7761 1.4H43.3361L53.0161 30H49.5761L46.7761 21.76H34.9761L32.2161 30H28.9361ZM40.8961 4.28L35.9361 19H45.8561L40.8961 4.28ZM58.0492 30V1.4H62.8892L71.7292 23.68L80.2892 1.4H85.0892V30H81.6092V5.92L72.1292 30H71.0492L61.2492 5.92V30H58.0492ZM92.307 30V1.4H108.987V4.24H95.787V13.96H106.427V16.8H95.787V27.16H109.707V30H92.307ZM125.749 30V1.4H129.229V30H125.749ZM145.883 30.36C138.243 30.36 135.483 26.16 134.963 21.28H138.323C138.763 24.68 140.123 27.56 145.883 27.56C149.563 27.56 152.403 25.4 152.403 22.16C152.403 18.92 150.923 17.56 145.483 16.68C139.483 15.76 135.923 13.88 135.923 8.8C135.923 4.4 139.723 1.04 145.123 1.04C150.843 1.04 154.403 3.84 154.963 8.92H151.843C151.163 5.32 149.083 3.84 145.123 3.84C141.203 3.84 139.163 5.8 139.163 8.48C139.163 11.28 140.203 12.72 146.043 13.6C152.403 14.6 155.763 16.52 155.763 21.92C155.763 26.72 151.563 30.36 145.883 30.36ZM184.267 30.36C175.987 30.36 170.907 24.68 170.907 15.88V15.56C170.907 7.08 176.587 0.96 184.347 0.96C190.307 0.96 195.347 4.12 195.947 10.32H192.507C191.787 5.96 189.267 3.72 184.387 3.72C178.467 3.72 174.507 8.32 174.507 15.52V15.84C174.507 23.12 178.187 27.52 184.347 27.52C189.027 27.52 192.267 25.16 192.987 20.52H196.227C195.227 27.12 190.667 30.36 184.267 30.36ZM214.286 30.36C205.846 30.36 200.126 23.88 200.126 15.88V15.56C200.126 7.44 205.806 1.04 214.206 1.04C222.606 1.04 228.166 7.44 228.166 15.48V15.8C228.166 23.88 222.606 30.36 214.286 30.36ZM214.286 27.48C220.646 27.48 224.566 22.68 224.566 15.76V15.44C224.566 9.04 220.806 3.84 214.206 3.84C207.566 3.84 203.726 8.72 203.726 15.52V15.84C203.726 22.76 208.326 27.48 214.286 27.48ZM233.948 30V1.4H238.788L247.628 23.68L256.188 1.4H260.988V30H257.508V5.92L248.028 30H246.948L237.148 5.92V30H233.948ZM268.405 30V1.4H271.885V30H268.405ZM279.299 30V1.4H283.819L297.739 25.04V1.4H301.059V30H297.059L282.619 5.48V30H279.299ZM320.685 30.36C311.885 30.36 306.845 24.24 306.845 15.88V15.56C306.845 7.2 312.485 0.96 320.685 0.96C326.365 0.96 331.445 3.6 332.325 10.04H328.845C328.045 5.48 324.925 3.72 320.765 3.72C314.205 3.72 310.445 8.52 310.445 15.52V15.84C310.445 22.92 313.965 27.56 320.685 27.56C326.885 27.56 329.565 23.52 329.685 18.44H321.325V15.56H333.085V17.68C333.085 25.96 328.005 30.36 320.685 30.36ZM358.735 30.36C351.095 30.36 348.335 26.16 347.815 21.28H351.175C351.615 24.68 352.975 27.56 358.735 27.56C362.415 27.56 365.255 25.4 365.255 22.16C365.255 18.92 363.775 17.56 358.335 16.68C352.335 15.76 348.775 13.88 348.775 8.8C348.775 4.4 352.575 1.04 357.975 1.04C363.695 1.04 367.255 3.84 367.815 8.92H364.695C364.015 5.32 361.935 3.84 357.975 3.84C354.055 3.84 352.015 5.8 352.015 8.48C352.015 11.28 353.055 12.72 358.895 13.6C365.255 14.6 368.615 16.52 368.615 21.92C368.615 26.72 364.415 30.36 358.735 30.36ZM387.137 30.36C378.697 30.36 372.977 23.88 372.977 15.88V15.56C372.977 7.44 378.657 1.04 387.057 1.04C395.457 1.04 401.017 7.44 401.017 15.48V15.8C401.017 23.88 395.457 30.36 387.137 30.36ZM387.137 27.48C393.497 27.48 397.417 22.68 397.417 15.76V15.44C397.417 9.04 393.657 3.84 387.057 3.84C380.417 3.84 376.577 8.72 376.577 15.52V15.84C376.577 22.76 381.177 27.48 387.137 27.48ZM419.559 30.36C411.119 30.36 405.399 23.88 405.399 15.88V15.56C405.399 7.44 411.079 1.04 419.479 1.04C427.879 1.04 433.439 7.44 433.439 15.48V15.8C433.439 23.88 427.879 30.36 419.559 30.36ZM419.559 27.48C425.919 27.48 429.839 22.68 429.839 15.76V15.44C429.839 9.04 426.079 3.84 419.479 3.84C412.839 3.84 408.999 8.72 408.999 15.52V15.84C408.999 22.76 413.599 27.48 419.559 27.48ZM439.221 30V1.4H443.741L457.661 25.04V1.4H460.981V30H456.981L442.541 5.48V30H439.221Z" fill="white"/>
</svg>
