<svg width="663" height="56" viewBox="0 0 663 56" fill="none" xmlns="http://www.w3.org/2000/svg">
<path d="M54.7681 21.2V54.72C54.7681 55.04 54.6348 55.3333 54.3681 55.6C54.1015 55.8667 53.7815 56 53.4081 56H27.5681C22.6615 56 18.1015 54.8 13.8881 52.4C9.72813 49.9467 6.42146 46.64 3.96813 42.48C1.56813 38.2667 0.368125 33.7067 0.368125 28.8V27.2C0.368125 22.2933 1.56813 17.76 3.96813 13.6C6.42146 9.38666 9.72813 6.08 13.8881 3.68C18.1015 1.22666 22.6615 -3.8147e-06 27.5681 -3.8147e-06H53.4081C53.7815 -3.8147e-06 54.1015 0.133329 54.3681 0.399996C54.6348 0.666662 54.7681 0.959997 54.7681 1.28V14.96C54.7681 15.3333 54.6348 15.6533 54.3681 15.92C54.1015 16.1867 53.7815 16.32 53.4081 16.32H28.5281C28.2081 16.32 27.9148 16.32 27.6481 16.32H27.5681C24.5815 16.32 22.0215 17.3867 19.8881 19.52C17.7548 21.6533 16.6881 24.2133 16.6881 27.2V28.8C16.6881 31.7867 17.7548 34.3467 19.8881 36.48C22.0215 38.6133 24.5815 39.68 27.5681 39.68H37.0881C37.4615 39.68 37.7815 39.5467 38.0481 39.28C38.3148 39.0133 38.4481 38.72 38.4481 38.4V37.44C38.4481 37.12 38.3148 36.8267 38.0481 36.56C37.7815 36.2933 37.4615 36.16 37.0881 36.16H31.3281C30.9548 36.16 30.6348 36.0267 30.3681 35.76C30.1015 35.4933 29.9681 35.1733 29.9681 34.8V21.2C29.9681 20.8267 30.1015 20.5067 30.3681 20.24C30.6348 19.9733 30.9548 19.84 31.3281 19.84H53.4081C53.7815 19.84 54.1015 19.9733 54.3681 20.24C54.6348 20.5067 54.7681 20.8267 54.7681 21.2ZM115.282 14.96C115.282 15.3333 115.149 15.6533 114.882 15.92C114.615 16.1867 114.295 16.32 113.922 16.32H62.1619C61.8419 16.32 61.5485 16.1867 61.2819 15.92C61.0152 15.6533 60.8819 15.3333 60.8819 14.96V1.28C60.8819 0.959997 61.0152 0.666662 61.2819 0.399996C61.5485 0.133329 61.8419 -3.8147e-06 62.1619 -3.8147e-06H113.922C114.295 -3.8147e-06 114.615 0.133329 114.882 0.399996C115.149 0.666662 115.282 0.959997 115.282 1.28V14.96ZM62.1619 56C61.8419 56 61.5485 55.8667 61.2819 55.6C61.0152 55.3333 60.8819 55.04 60.8819 54.72V21.2C60.8819 20.8267 61.0152 20.5067 61.2819 20.24C61.5485 19.9733 61.8419 19.84 62.1619 19.84H104.482C104.855 19.84 105.175 19.9733 105.442 20.24C105.709 20.5067 105.842 20.8267 105.842 21.2V34.8C105.842 35.1733 105.709 35.4933 105.442 35.76C105.175 36.0267 104.855 36.16 104.482 36.16H78.4819C78.1085 36.16 77.7885 36.2933 77.5219 36.56C77.3085 36.8267 77.2019 37.12 77.2019 37.44V38.4C77.2019 38.72 77.3352 39.0133 77.6019 39.28C77.8685 39.5467 78.1619 39.68 78.4819 39.68H113.922C114.295 39.68 114.615 39.8133 114.882 40.08C115.149 40.3467 115.282 40.6667 115.282 41.04V54.72C115.282 55.04 115.149 55.3333 114.882 55.6C114.615 55.8667 114.295 56 113.922 56H62.1619ZM117.062 1.28C117.062 0.959997 117.196 0.666662 117.463 0.399996C117.729 0.133329 118.023 -3.8147e-06 118.343 -3.8147e-06H170.103C170.476 -3.8147e-06 170.796 0.133329 171.063 0.399996C171.329 0.666662 171.463 0.959997 171.463 1.28V14.96C171.463 15.3333 171.329 15.6533 171.063 15.92C170.796 16.1867 170.476 16.32 170.103 16.32H118.343C118.023 16.32 117.729 16.1867 117.463 15.92C117.196 15.6533 117.062 15.3333 117.062 14.96V1.28ZM137.383 56C137.063 56 136.769 55.8667 136.503 55.6C136.236 55.3333 136.103 55.0133 136.103 54.64V21.2C136.103 20.8267 136.236 20.5067 136.503 20.24C136.769 19.9733 137.063 19.84 137.383 19.84H151.063C151.436 19.84 151.756 19.9733 152.023 20.24C152.289 20.5067 152.423 20.8267 152.423 21.2V54.72C152.423 55.04 152.289 55.3333 152.023 55.6C151.756 55.8667 151.436 56 151.063 56H137.383ZM190.573 14.96V1.28C190.573 0.959997 190.706 0.666662 190.973 0.399996C191.24 0.133329 191.533 -3.8147e-06 191.853 -3.8147e-06H206.093C206.626 -3.8147e-06 207.026 0.21333 207.293 0.639997L216.653 16.88C216.866 17.3067 217.24 17.52 217.773 17.52C218.306 17.52 218.68 17.3067 218.893 16.88L228.253 0.639997C228.52 0.21333 228.893 -3.8147e-06 229.373 -3.8147e-06H243.613C243.986 -3.8147e-06 244.306 0.133329 244.573 0.399996C244.84 0.666662 244.973 0.959997 244.973 1.28V54.64C244.973 55.0133 244.84 55.3333 244.573 55.6C244.306 55.8667 243.986 56 243.613 56H229.933C229.613 56 229.32 55.8667 229.053 55.6C228.786 55.3333 228.653 55.0133 228.653 54.64V37.52C228.653 36.88 228.306 36.48 227.613 36.32C226.973 36.1067 226.493 36.2933 226.173 36.88L218.893 49.52C218.626 49.9467 218.226 50.16 217.693 50.16C217.213 50.16 216.866 49.9467 216.653 49.52L208.333 35.2L206.893 32.64L197.853 16.96C197.586 16.5333 197.213 16.32 196.733 16.32H191.853C191.533 16.32 191.24 16.1867 190.973 15.92C190.706 15.6533 190.573 15.3333 190.573 14.96ZM191.853 56C191.533 56 191.24 55.8667 190.973 55.6C190.706 55.3333 190.573 55.04 190.573 54.72V21.2C190.573 20.8267 190.706 20.5067 190.973 20.24C191.24 19.9733 191.533 19.84 191.853 19.84H194.653C195.186 19.84 195.56 20.0533 195.773 20.48L206.733 39.36C206.84 39.5733 206.893 39.8133 206.893 40.08V54.72C206.893 55.04 206.76 55.3333 206.493 55.6C206.226 55.8667 205.906 56 205.533 56H191.853ZM262.716 3.68C266.93 1.22666 271.49 -3.8147e-06 276.396 -3.8147e-06C281.303 -3.8147e-06 285.836 1.22666 289.996 3.68C294.21 6.08 297.516 9.38666 299.916 13.6C302.37 17.76 303.596 22.2933 303.596 27.2V28.8C303.596 33.7067 302.37 38.2667 299.916 42.48C297.516 46.64 294.21 49.9467 289.996 52.4C285.836 54.8 281.303 56 276.396 56C271.49 56 266.93 54.8 262.716 52.4C258.556 49.9467 255.25 46.64 252.796 42.48C250.396 38.2667 249.196 33.7067 249.196 28.8V27.2C249.196 22.2933 250.396 17.76 252.796 13.6C255.25 9.38666 258.556 6.08 262.716 3.68ZM287.276 28.32V27.68C287.276 24.6933 286.21 22.1333 284.076 20C281.943 17.8667 279.383 16.8 276.396 16.8C273.41 16.8 270.85 17.8667 268.716 20C266.583 22.1333 265.516 24.6933 265.516 27.68V28.32C265.516 31.3067 266.583 33.8667 268.716 36C270.85 38.1333 273.41 39.2 276.396 39.2C279.383 39.2 281.943 38.1333 284.076 36C286.21 33.8667 287.276 31.3067 287.276 28.32ZM309.041 56C308.721 56 308.427 55.8667 308.161 55.6C307.894 55.3333 307.761 55.0133 307.761 54.64V21.2C307.761 20.8267 307.894 20.5067 308.161 20.24C308.427 19.9733 308.721 19.84 309.041 19.84H344.081C344.561 19.84 344.961 19.68 345.281 19.36C345.654 18.9867 345.841 18.56 345.841 18.08C345.841 17.6 345.654 17.2 345.281 16.88C344.961 16.5067 344.561 16.32 344.081 16.32H309.041C308.721 16.32 308.427 16.1867 308.161 15.92C307.894 15.6533 307.761 15.3333 307.761 14.96V1.28C307.761 0.959997 307.894 0.666662 308.161 0.399996C308.427 0.133329 308.721 -3.8147e-06 309.041 -3.8147e-06H344.081C349.041 -3.8147e-06 353.281 1.78666 356.801 5.36C360.374 8.88 362.161 13.12 362.161 18.08C362.161 21.3867 361.307 24.4533 359.601 27.28C359.334 27.76 359.334 28.2133 359.601 28.64C361.307 31.52 362.161 34.6133 362.161 37.92V54.72C362.161 55.04 362.027 55.3333 361.761 55.6C361.494 55.8667 361.174 56 360.801 56H347.121C346.801 56 346.507 55.8667 346.241 55.6C345.974 55.3333 345.841 55.04 345.841 54.72V37.92C345.841 37.44 345.654 37.04 345.281 36.72C344.961 36.3467 344.561 36.16 344.081 36.16H325.361C325.041 36.16 324.747 36.2933 324.481 36.56C324.214 36.8267 324.081 37.12 324.081 37.44V54.72C324.081 55.04 323.947 55.3333 323.681 55.6C323.414 55.8667 323.094 56 322.721 56H309.041ZM421.923 14.96C421.923 15.3333 421.789 15.6533 421.523 15.92C421.256 16.1867 420.936 16.32 420.563 16.32H368.803C368.483 16.32 368.189 16.1867 367.923 15.92C367.656 15.6533 367.523 15.3333 367.523 14.96V1.28C367.523 0.959997 367.656 0.666662 367.923 0.399996C368.189 0.133329 368.483 -3.8147e-06 368.803 -3.8147e-06H420.563C420.936 -3.8147e-06 421.256 0.133329 421.523 0.399996C421.789 0.666662 421.923 0.959997 421.923 1.28V14.96ZM368.803 56C368.483 56 368.189 55.8667 367.923 55.6C367.656 55.3333 367.523 55.04 367.523 54.72V21.2C367.523 20.8267 367.656 20.5067 367.923 20.24C368.189 19.9733 368.483 19.84 368.803 19.84H411.123C411.496 19.84 411.816 19.9733 412.083 20.24C412.349 20.5067 412.483 20.8267 412.483 21.2V34.8C412.483 35.1733 412.349 35.4933 412.083 35.76C411.816 36.0267 411.496 36.16 411.123 36.16H385.122C384.749 36.16 384.429 36.2933 384.163 36.56C383.949 36.8267 383.843 37.12 383.843 37.44V38.4C383.843 38.72 383.976 39.0133 384.243 39.28C384.509 39.5467 384.803 39.68 385.122 39.68H420.563C420.936 39.68 421.256 39.8133 421.523 40.08C421.789 40.3467 421.923 40.6667 421.923 41.04V54.72C421.923 55.04 421.789 55.3333 421.523 55.6C421.256 55.8667 420.936 56 420.563 56H368.803ZM442.839 14.96V1.28C442.839 0.959997 442.972 0.666662 443.239 0.399996C443.505 0.133329 443.799 -3.8147e-06 444.119 -3.8147e-06H458.359C458.892 -3.8147e-06 459.292 0.21333 459.559 0.639997L468.919 16.88C469.132 17.3067 469.505 17.52 470.039 17.52C470.572 17.52 470.945 17.3067 471.159 16.88L480.519 0.639997C480.785 0.21333 481.159 -3.8147e-06 481.639 -3.8147e-06H495.879C496.252 -3.8147e-06 496.572 0.133329 496.839 0.399996C497.105 0.666662 497.239 0.959997 497.239 1.28V54.64C497.239 55.0133 497.105 55.3333 496.839 55.6C496.572 55.8667 496.252 56 495.879 56H482.199C481.879 56 481.585 55.8667 481.319 55.6C481.052 55.3333 480.919 55.0133 480.919 54.64V37.52C480.919 36.88 480.572 36.48 479.879 36.32C479.239 36.1067 478.759 36.2933 478.439 36.88L471.159 49.52C470.892 49.9467 470.492 50.16 469.959 50.16C469.479 50.16 469.132 49.9467 468.919 49.52L460.599 35.2L459.159 32.64L450.119 16.96C449.852 16.5333 449.479 16.32 448.999 16.32H444.119C443.799 16.32 443.505 16.1867 443.239 15.92C442.972 15.6533 442.839 15.3333 442.839 14.96ZM444.119 56C443.799 56 443.505 55.8667 443.239 55.6C442.972 55.3333 442.839 55.04 442.839 54.72V21.2C442.839 20.8267 442.972 20.5067 443.239 20.24C443.505 19.9733 443.799 19.84 444.119 19.84H446.919C447.452 19.84 447.825 20.0533 448.039 20.48L458.999 39.36C459.105 39.5733 459.159 39.8133 459.159 40.08V54.72C459.159 55.04 459.025 55.3333 458.759 55.6C458.492 55.8667 458.172 56 457.799 56H444.119ZM514.982 3.68C519.195 1.22666 523.755 -3.8147e-06 528.662 -3.8147e-06C533.569 -3.8147e-06 538.102 1.22666 542.262 3.68C546.475 6.08 549.782 9.38666 552.182 13.6C554.635 17.76 555.862 22.2933 555.862 27.2V28.8C555.862 33.7067 554.635 38.2667 552.182 42.48C549.782 46.64 546.475 49.9467 542.262 52.4C538.102 54.8 533.569 56 528.662 56C523.755 56 519.195 54.8 514.982 52.4C510.822 49.9467 507.515 46.64 505.062 42.48C502.662 38.2667 501.462 33.7067 501.462 28.8V27.2C501.462 22.2933 502.662 17.76 505.062 13.6C507.515 9.38666 510.822 6.08 514.982 3.68ZM539.542 28.32V27.68C539.542 24.6933 538.475 22.1333 536.342 20C534.209 17.8667 531.649 16.8 528.662 16.8C525.675 16.8 523.115 17.8667 520.982 20C518.849 22.1333 517.782 24.6933 517.782 27.68V28.32C517.782 31.3067 518.849 33.8667 520.982 36C523.115 38.1333 525.675 39.2 528.662 39.2C531.649 39.2 534.209 38.1333 536.342 36C538.475 33.8667 539.542 31.3067 539.542 28.32ZM587.306 -3.8147e-06C592.213 -3.8147e-06 596.746 1.22666 600.906 3.68C605.12 6.08 608.426 9.38666 610.826 13.6C613.28 17.76 614.506 22.2933 614.506 27.2V28.8C614.506 33.7067 613.28 38.2667 610.826 42.48C608.426 46.64 605.12 49.9467 600.906 52.4C596.746 54.8 592.213 56 587.306 56H561.386C561.066 56 560.773 55.8667 560.506 55.6C560.24 55.3333 560.106 55.04 560.106 54.72V1.36C560.106 0.986663 560.24 0.666662 560.506 0.399996C560.773 0.133329 561.066 -3.8147e-06 561.386 -3.8147e-06H587.306ZM598.186 28.8V27.2C598.186 24.2133 597.12 21.6533 594.986 19.52C592.853 17.3867 590.293 16.32 587.306 16.32H577.706C577.386 16.32 577.093 16.4533 576.826 16.72C576.56 16.9867 576.426 17.3067 576.426 17.68V38.4C576.426 38.72 576.56 39.0133 576.826 39.28C577.093 39.5467 577.386 39.68 577.706 39.68H587.306C590.293 39.68 592.853 38.6133 594.986 36.48C597.12 34.3467 598.186 31.7867 598.186 28.8ZM633.849 8.64C634.169 9.12 634.169 9.6 633.849 10.08L631.449 13.84L630.329 15.68C630.062 16.1067 629.689 16.32 629.209 16.32H620.169C619.689 16.32 619.315 16.1067 619.049 15.68L610.489 2C610.169 1.57333 610.142 1.14666 610.409 0.719996C610.675 0.239996 611.075 -3.8147e-06 611.609 -3.8147e-06H627.689C628.169 -3.8147e-06 628.542 0.21333 628.809 0.639997L633.849 8.64ZM644.729 30C644.622 30.2133 644.569 30.4533 644.569 30.72V54.64C644.569 55.0133 644.435 55.3333 644.169 55.6C643.902 55.8667 643.582 56 643.209 56H629.529C629.155 56 628.835 55.8667 628.569 55.6C628.355 55.3333 628.249 55.0133 628.249 54.64V30.72C628.249 30.4533 628.169 30.2133 628.009 30L626.729 28L622.889 21.84C622.622 21.4133 622.595 20.9867 622.809 20.56C623.075 20.08 623.475 19.84 624.009 19.84H631.129C631.609 19.84 631.982 19.6267 632.249 19.2H632.329L636.409 12.64L639.929 6.96L642.249 3.36L643.929 0.639997C644.195 0.21333 644.569 -3.8147e-06 645.049 -3.8147e-06H661.209C661.689 -3.8147e-06 662.062 0.239996 662.329 0.719996C662.595 1.14666 662.595 1.57333 662.329 2L646.009 28L644.729 30Z" fill="white"/>
</svg>
