<svg xmlns="http://www.w3.org/2000/svg" width="130" height="130" fill="none"><g clip-path="url(#a)"><path fill="url(#b)" d="M114.095 25.542 111 9H18v16.274L6.5 27.5 6 103l10 1 1.5 1.5 1.13 13.431h8.638V121h77.401l.789-2.069L111 117l3.095-13.268 8.637-.528V26.299z"/><path fill="#E83174" d="M34.5 17.268h69.553V8.637h-78.19v8.63z"/><path fill="#000" d="M17.274 17.268H8.637v8.637h8.637z"/><path fill="#FC50FF" d="M17.274 25.905H8.637v8.637h8.637z"/><path fill="#000" d="M0 30.224v73.871h8.637v-78.19H0zM25.905 8.637h-8.637v8.637h8.637z"/><path fill="#FC50FF" d="M25.905 17.268h-8.637v8.637h8.637z"/><path fill="#000" d="M17.274 104.095H8.637v8.637h8.637z"/><path fill="#2B05C1" d="M17.274 95.458H8.637v8.637h8.637z"/><path fill="#000" d="M25.905 112.726h-8.637v8.637h8.637z"/><path fill="#2B05C1" d="M25.905 104.095h-8.637v8.637h8.637zM112.732 104.095h-8.637v8.637h8.637z"/><path fill="#000" d="M121.369 17.268h-8.637v8.637h8.637z"/><path fill="#FC50FF" d="M121.369 25.905h-8.637v8.637h8.637z"/><path fill="#000" d="M121.369 25.905v78.19H130v-78.19zM112.732 8.637h-8.637v8.637h8.637z"/><path fill="#FC50FF" d="M112.732 17.268h-8.637v8.637h8.637z"/><path fill="#000" d="M96.745 8.637h7.35V0h-78.19v8.637zM121.369 104.095h-8.637v8.637h8.637z"/><path fill="#2B05C1" d="M121.369 95.458h-8.637v8.637h8.637z"/><path fill="#000" d="M112.732 112.726h-8.637v8.637h8.637zM95.464 121.363H25.905V130h78.19v-8.637z"/><path fill="#2B05C1" d="M104.053 112.726h-78.19v8.637h78.19z"/><path fill="#FC50FF" d="M104.053 8.637h-78.19v8.637h78.19z"/><g fill="#fff" clip-path="url(#c)"><path d="M65 71.475 33.525 40h62.95zM51.475 65 30 86.475v-42.95z"/><path d="m55 68.525 8.225 8.225c.5.5 1.125.725 1.775.725s1.275-.25 1.775-.725L75 68.525 96.475 90h-62.95zM78.525 65 100 43.525v42.95z"/></g></g><defs><clipPath id="a"><path fill="#fff" d="M0 0h130v130H0z"/></clipPath><clipPath id="c"><path fill="#fff" d="M30 40h70v50H30z"/></clipPath><linearGradient id="b" x1="65.363" x2="65.363" y1="121.726" y2="9" gradientUnits="userSpaceOnUse"><stop stop-color="#671FFD"/><stop offset="1" stop-color="#D302F5"/></linearGradient></defs></svg>