<svg xmlns="http://www.w3.org/2000/svg" width="260" height="130" fill="none"><mask id="a" width="260" height="130" x="0" y="0" maskUnits="userSpaceOnUse" style="mask-type:luminance"><path fill="#fff" d="M260 0H0v130h260z"/></mask><g mask="url(#a)"><path fill="url(#b)" d="M244.1 25.54 241 9H18v16.27L6.5 27.5 6 103l10 1 1.5 1.5 1.13 13.43h8.64V121h207.4l.79-2.07L241 117l3.1-13.27 8.64-.53V26.3z"/><path fill="#FC50FF" d="M80.986-13.123h56.832V15H80.986z"/><path fill="#E83174" d="M34.5 17.27h199.55V8.64H25.86v8.63z"/><path fill="#000" d="M17.27 17.27H8.63v8.64h8.64z"/><path fill="#FC50FF" d="M17.27 25.91H8.63v8.64h8.64z"/><path fill="#000" d="M0 30.22v73.87h8.64V25.91H0v4.32zM25.9 8.64h-8.64v8.64h8.64z"/><path fill="#FC50FF" d="M25.9 17.27h-8.64v8.64h8.64z"/><path fill="#000" d="M17.27 104.1H8.63v8.64h8.64z"/><path fill="#2B05C1" d="M17.27 95.46H8.63v8.64h8.64z"/><path fill="#000" d="M25.9 112.73h-8.64v8.64h8.64z"/><path fill="#2B05C1" d="M25.9 104.1h-8.64v8.64h8.64zM242.73 104.1h-8.64v8.64h8.64z"/><path fill="#000" d="M251.37 17.27h-8.64v8.64h8.64z"/><path fill="#FC50FF" d="M251.37 25.91h-8.64v8.64h8.64z"/><path fill="#000" d="M251.37 25.91v78.19H260V25.91zM242.73 8.64h-8.64v8.64h8.64z"/><path fill="#FC50FF" d="M242.73 17.27h-8.64v8.64h8.64z"/><path fill="#000" d="M226.75 8.64h7.35V0H25.91v8.64zM251.37 104.1h-8.64v8.64h8.64z"/><path fill="#2B05C1" d="M251.37 95.46h-8.64v8.64h8.64z"/><path fill="#000" d="M242.73 112.73h-8.64v8.64h8.64z"/><path fill="#000" d="M225.46 121.36H25.91V130H234.1v-8.64h-8.64"/><path fill="#2B05C1" d="M234.05 112.73H25.86v8.64h208.19z"/><path fill="#FC50FF" d="M234.05 8.64H25.86v8.64h208.19z"/></g><defs><linearGradient id="b" x1="129.37" x2="129.37" y1="121.73" y2="9" gradientUnits="userSpaceOnUse"><stop stop-color="#671FFD"/><stop offset="1" stop-color="#D302F5"/></linearGradient></defs></svg>