<svg xmlns="http://www.w3.org/2000/svg" width="1020" height="1200" fill="none"><path fill="#000" fill-rule="evenodd" d="M34.7 17.27h17.11V0h916.38v17.27h17.27v17.27h17.28v17.27H1020v1096.38h-17.26v17.27h-17.28v17.26h-17.27v-4.13h-.08v4.12h.08V1200H51.81v-17.27l-.08-.01H34.54v-17.26H17.28v-34.54h.16V69.08h-.16V34.54h17.26V17.27zM0 60.45v1087.74h17.27V51.81H0z" clip-rule="evenodd"/><path fill="#000" fill-rule="evenodd" d="M968.19 17.27H51.81V0h916.38zm-933.49 0h950.76v23.87-6.6h17.27v17.27h17.26v1096.38h-17.26v17.27h-17.27v-15.25 32.5h-17.27v-4.13h-.08v4.13h-.97 1.05v17.27H51.81v-17.27H34.54v-17.26H17.28v-34.54h.16V69.08h-.16V34.54h17.26V17.27zM0 60.45v1087.74h17.27V51.81H0z" clip-rule="evenodd"/><path fill="#FFBA01" d="m985.63 51.81-.52-34.54H34.7v34.54H17.44v1096.38H34.7v-11.69 42.09h17.27v4.14h915.17v-4.14h17.27v-13.14l1.2-17.26h17.27V51.81h-17.27z"/><path fill="#E83174" d="M69 34.54h899.1V17.28H51.73v17.26z"/><path fill="#000" d="M34.55 34.54H17.28v17.27h17.27z"/><path fill="#FEFF01" d="M34.55 51.81H17.28v17.27h17.27z"/><path fill="#000" d="M0 60.45v1087.74h17.27V51.81H0zM51.81 17.27H34.54v17.27h17.27z"/><path fill="#FEFF01" d="M51.81 34.54H34.54v17.27h17.27z"/><path fill="#000" d="M34.55 1148.19H17.28v17.27h17.27z"/><path fill="#FF7131" d="M34.55 1130.92H17.28v17.27h17.27z"/><path fill="#000" d="M51.81 1165.45H34.54v17.27h17.27z"/><path fill="#FF7131" d="M51.81 1148.19H34.54v17.27h17.27zM985.46 1148.19h-17.27v17.27h17.27z"/><path fill="#000" d="M1002.74 34.54h-17.27v17.27h17.27z"/><path fill="#FEFF01" d="M1002.74 51.81h-17.27v17.27h17.27z"/><path fill="#000" d="M1002.74 51.81v1096.38H1020V51.81zM985.46 17.27h-17.27v17.27h17.27z"/><path fill="#FEFF01" d="M985.46 34.54h-17.27v17.27h17.27z"/><path fill="#000" d="M953.49 17.27h14.7V0H51.81v17.27zM1002.74 1148.19h-17.27v17.27h17.27z"/><path fill="#FF7131" d="M1002.74 1130.92h-17.27v17.27h17.27z"/><path fill="#000" d="M985.46 1165.45h-17.27v17.27h17.27zM950.93 1182.73H51.81V1200h916.38v-17.27z"/><path fill="#FF7131" d="M968.1 1165.45H51.73v17.27h916.38v-17.27z"/><path fill="#FEFF01" d="M968.1 17.27H51.73v17.27h916.38V17.27z"/></svg>