<svg xmlns="http://www.w3.org/2000/svg" width="130" height="130" fill="none"><g clip-path="url(#a)"><path fill="#29A9EA" d="M113.095 26.268 110 9H17.631L17 25.5l-8 .768L7.5 103.5l10.131.958v-5.846 21.045h8.637v2.069L104 121.5l.458-1.843h7.042l1.595-15.199 8.637-.528V26.268z"/><path fill="#E83174" d="M34.5 17.268h69.553V8.637h-78.19v8.63z"/><path fill="#000" d="M17.274 17.268H8.637v8.637h8.637z"/><path fill="#3ED4F5" d="M17.274 25.905H8.637v8.637h8.637z"/><path fill="#000" d="M0 30.224v73.871h8.637v-78.19H0zM25.905 8.637h-8.637v8.637h8.637z"/><path fill="#3ED4F5" d="M25.905 17.268h-8.637v8.637h8.637z"/><path fill="#000" d="M17.274 104.095H8.637v8.637h8.637z"/><path fill="#116894" d="M17.274 95.458H8.637v8.637h8.637z"/><path fill="#000" d="M25.905 112.726h-8.637v8.637h8.637z"/><path fill="#116894" d="M25.905 104.095h-8.637v8.637h8.637zM112.732 104.095h-8.637v8.637h8.637z"/><path fill="#000" d="M121.369 17.268h-8.637v8.637h8.637z"/><path fill="#3ED4F5" d="M121.369 25.905h-8.637v8.637h8.637z"/><path fill="#000" d="M121.369 25.905v78.19H130v-78.19zM112.732 8.637h-8.637v8.637h8.637z"/><path fill="#3ED4F5" d="M112.732 17.268h-8.637v8.637h8.637z"/><path fill="#000" d="M96.745 8.637h7.35V0h-78.19v8.637zM121.369 104.095h-8.637v8.637h8.637z"/><path fill="#116894" d="M121.369 95.458h-8.637v8.637h8.637z"/><path fill="#000" d="M112.732 112.726h-8.637v8.637h8.637zM95.464 121.363H25.905V130h78.19v-8.637z"/><path fill="#116894" d="M104.053 112.726h-78.19v8.637h78.19z"/><path fill="#3ED4F5" d="M104.053 8.637h-78.19v8.637h78.19z"/></g><path fill="#fff" d="M84.523 41.42C76.81 44.616 43.728 58.32 34.586 62.056c-6.131 2.395-2.542 4.636-2.542 4.636s5.232 1.79 9.72 3.139 6.876-.148 6.876-.148l21.078-14.201c7.473-5.085 5.682-.9 3.89.898-3.89 3.885-10.317 10.016-15.697 14.953-2.395 2.093-1.194 3.89-.148 4.783 3.885 3.287 14.503 10.016 15.1 10.465 3.159 2.235 9.37 5.454 10.318-1.348l3.737-23.472c1.194-7.923 2.394-15.248 2.542-17.341.45-5.085-4.937-2.992-4.937-2.992z"/><defs><clipPath id="a"><path fill="#fff" d="M0 0h130v130H0z"/></clipPath></defs></svg>