<svg width="265" height="138" viewBox="0 0 265 138" fill="none" xmlns="http://www.w3.org/2000/svg">
<path d="M255.199 97.9804H250.525V88.6338H255.199V97.9804ZM259.872 97.9804V88.6338H264.545V97.9804H259.872ZM259.872 112H255.199V97.9804H259.872V112Z" fill="white"/>
<path d="M240.853 107.327V112H222.16V88.6338H240.853V93.3071H226.833V97.9804H236.18V102.654H226.833V107.327H240.853Z" fill="white"/>
<path d="M198.466 93.3071V88.6338H212.486V93.3071H198.466ZM193.793 97.9804V93.3071H198.466V97.9804H193.793ZM198.466 97.9804H207.813V102.654H198.466V97.9804ZM212.486 107.327H207.813V102.654H212.486V107.327ZM207.813 107.327V112H193.793V107.327H207.813Z" fill="white"/>
<path d="M170.099 93.3071V88.6338H184.119V93.3071H170.099ZM165.426 97.9804V93.3071H170.099V97.9804H165.426ZM170.099 97.9804H179.446V102.654H170.099V97.9804ZM184.119 107.327H179.446V102.654H184.119V107.327ZM179.446 107.327V112H165.426V107.327H179.446Z" fill="white"/>
<path d="M146.406 97.9804H141.732V88.6338H146.406V97.9804ZM151.079 97.9804V88.6338H155.752V97.9804H151.079ZM151.079 112H146.406V97.9804H151.079V112Z" fill="white"/>
<path d="M118.04 107.327H127.387V112H113.367V88.6338H127.387V93.3071H118.04V107.327ZM132.06 107.327H127.387V93.3071H132.06V107.327Z" fill="white"/>
<path d="M89.6733 93.3071V88.6338H99.0199V93.3071H89.6733ZM89.6733 107.327H85V93.3071H89.6733V107.327ZM103.693 107.327H99.0199V93.3071H103.693V107.327ZM99.0199 107.327V112H89.6733V107.327H99.0199Z" fill="white"/>
<path d="M208.14 51.3071V46.6338H222.16V51.3071H208.14ZM208.14 70.0003V65.327H203.467V51.3071H208.14V65.327H217.487V60.6537H212.813V55.9804H222.16V70.0003H208.14Z" fill="white"/>
<path d="M179.773 70.0003H175.1V46.6338H179.773V51.3071H184.446V55.9804H179.773V70.0003ZM193.793 70.0003H189.12V60.6537H184.446V55.9804H189.12V46.6338H193.793V70.0003Z" fill="white"/>
<path d="M165.427 70.0003H160.754V46.6338H165.427V70.0003Z" fill="white"/>
<path d="M137.06 70.0003H132.387V46.6338H137.06V51.3071H141.733V55.9804H137.06V70.0003ZM151.08 70.0003H146.407V60.6537H141.733V55.9804H146.407V46.6338H151.08V70.0003Z" fill="white"/>
<path d="M122.712 70.0003H118.039V46.6338H122.712V70.0003Z" fill="white"/>
<path d="M89.6733 70.0003H85V46.6338H89.6733V51.3071H94.3466V55.9804H89.6733V70.0003ZM108.367 70.0003H103.693V55.9804H99.0199V51.3071H103.693V46.6338H108.367V70.0003ZM94.3466 60.6537V55.9804H99.0199V60.6537H94.3466Z" fill="white"/>
<rect width="3.44059" height="3.44059" transform="matrix(-1 0 0 1 51.6074 6.88184)" fill="#DEFFFC"/>
<rect width="3.44059" height="3.44059" transform="matrix(-1 0 0 1 51.6074 3.44043)" fill="#DEFFFC"/>
<rect width="3.44059" height="3.44059" transform="matrix(-1 0 0 1 48.1641 3.44043)" fill="#DEFFFC"/>
<rect width="3.44059" height="3.44059" transform="matrix(-1 0 0 1 55.0469 3.44043)" fill="#DEFFFC"/>
<rect width="3.44059" height="3.44059" transform="matrix(-1 0 0 1 51.6074 0)" fill="#DEFFFC"/>
<rect width="3.44059" height="3.44059" transform="matrix(-1 0 0 1 61.9316 51.6094)" fill="#DEFFFC"/>
<rect width="3.44059" height="3.44059" transform="matrix(-1 0 0 1 65.3672 51.6094)" fill="#DEFFFC"/>
<rect width="3.44059" height="3.44059" transform="matrix(-1 0 0 1 65.3672 55.0488)" fill="#DEFFFC"/>
<rect width="3.44059" height="3.44059" transform="matrix(-1 0 0 1 65.3672 48.168)" fill="#DEFFFC"/>
<rect width="3.44059" height="3.44059" transform="matrix(-1 0 0 1 68.8105 51.6094)" fill="#DEFFFC"/>
<rect width="3.44059" height="3.44059" transform="matrix(-1 0 0 1 13.7598 17.2031)" fill="#DEFFFC"/>
<rect width="3.44059" height="3.44059" transform="matrix(-1 0 0 1 10.3242 17.2031)" fill="#DEFFFC"/>
<rect width="3.44059" height="3.44059" transform="matrix(-1 0 0 1 10.3242 20.6426)" fill="#DEFFFC"/>
<rect width="3.44059" height="3.44059" transform="matrix(-1 0 0 1 10.3242 13.7627)" fill="#DEFFFC"/>
<rect width="3.44059" height="3.44059" transform="matrix(-1 0 0 1 6.87695 17.2031)" fill="#DEFFFC"/>
<rect width="3.44059" height="3.44059" transform="matrix(-1 0 0 1 34.4043 10.3232)" fill="#FF9E97"/>
<rect width="3.44059" height="3.44059" transform="matrix(-1 0 0 1 34.4043 13.7637)" fill="#F94538"/>
<rect width="3.44059" height="3.44059" transform="matrix(-1 0 0 1 37.8438 13.7637)" fill="#FF9E97"/>
<rect width="3.44059" height="3.44059" transform="matrix(-1 0 0 1 30.9648 13.7637)" fill="#D61713"/>
<rect width="3.44059" height="3.44059" transform="matrix(-1 0 0 1 34.4043 17.2051)" fill="#F94538"/>
<rect width="3.44059" height="3.44059" transform="matrix(-1 0 0 1 37.8438 17.2051)" fill="#F94538"/>
<rect width="3.44059" height="3.44059" transform="matrix(-1 0 0 1 41.2871 17.2051)" fill="#FF9E97"/>
<rect width="3.44059" height="3.44059" transform="matrix(-1 0 0 1 41.2871 20.6445)" fill="#FF9E97"/>
<rect width="3.44059" height="3.44059" transform="matrix(-1 0 0 1 41.2871 24.0859)" fill="#32B1B7"/>
<rect width="3.44059" height="3.44059" transform="matrix(-1 0 0 1 41.2871 27.5264)" fill="#58E0D5"/>
<rect width="3.44059" height="3.44059" transform="matrix(-1 0 0 1 41.2871 30.9658)" fill="#58E0D5"/>
<rect width="3.44059" height="3.44059" transform="matrix(-1 0 0 1 41.2871 34.4082)" fill="#58E0D5"/>
<rect width="3.44059" height="3.44059" transform="matrix(-1 0 0 1 41.2871 37.8477)" fill="#F94538"/>
<rect width="3.44059" height="3.44059" transform="matrix(-1 0 0 1 41.2871 41.2891)" fill="#F94538"/>
<rect width="3.44059" height="3.44059" transform="matrix(-1 0 0 1 41.2871 44.7285)" fill="#F94538"/>
<rect width="3.44059" height="3.44059" transform="matrix(-1 0 0 1 41.2871 48.1699)" fill="#58E0D5"/>
<rect width="3.44059" height="3.44059" transform="matrix(-1 0 0 1 41.2871 51.6113)" fill="#58E0D5"/>
<rect width="3.44059" height="3.44059" transform="matrix(-1 0 0 1 41.2871 55.0498)" fill="#58E0D5"/>
<rect width="3.44059" height="3.44059" transform="matrix(-1 0 0 1 41.2871 58.4912)" fill="#58E0D5"/>
<rect width="3.44059" height="3.44059" transform="matrix(-1 0 0 1 41.2871 61.9326)" fill="#58E0D5"/>
<rect width="3.44059" height="3.44059" transform="matrix(-1 0 0 1 41.2871 65.3721)" fill="#58E0D5"/>
<rect width="3.44059" height="3.44059" transform="matrix(-1 0 0 1 41.2871 68.8135)" fill="#58E0D5"/>
<rect width="3.44059" height="3.44059" transform="matrix(-1 0 0 1 41.2871 72.2529)" fill="#58E0D5"/>
<rect width="3.44059" height="3.44059" transform="matrix(-1 0 0 1 41.2871 75.6953)" fill="#58E0D5"/>
<rect width="3.44059" height="3.44059" transform="matrix(-1 0 0 1 41.2871 79.1348)" fill="#58E0D5"/>
<rect width="3.44059" height="3.44059" transform="matrix(-1 0 0 1 44.7227 24.0859)" fill="#DEFFFC"/>
<rect width="3.44059" height="3.44059" transform="matrix(-1 0 0 1 44.7227 27.5264)" fill="#DEFFFC"/>
<rect width="3.44059" height="3.44059" transform="matrix(-1 0 0 1 44.7227 30.9658)" fill="#DEFFFC"/>
<rect width="3.44059" height="3.44059" transform="matrix(-1 0 0 1 44.7227 34.4082)" fill="#58E0D5"/>
<rect width="3.44059" height="3.44059" transform="matrix(-1 0 0 1 44.7227 37.8477)" fill="#DEFFFC"/>
<rect width="3.44059" height="3.44059" transform="matrix(-1 0 0 1 44.7227 41.2891)" fill="#58E0D5"/>
<rect width="3.44059" height="3.44059" transform="matrix(-1 0 0 1 44.7227 44.7285)" fill="#DEFFFC"/>
<rect width="3.44059" height="3.44059" transform="matrix(-1 0 0 1 44.7227 48.1699)" fill="#58E0D5"/>
<rect width="3.44059" height="3.44059" transform="matrix(-1 0 0 1 44.7227 51.6113)" fill="#DEFFFC"/>
<rect width="3.44059" height="3.44059" transform="matrix(-1 0 0 1 44.7227 55.0498)" fill="#58E0D5"/>
<rect width="3.44059" height="3.44059" transform="matrix(-1 0 0 1 44.7227 58.4912)" fill="#DEFFFC"/>
<rect width="3.44059" height="3.44059" transform="matrix(-1 0 0 1 44.7227 61.9326)" fill="#58E0D5"/>
<rect width="3.44059" height="3.44059" transform="matrix(-1 0 0 1 44.7227 65.3721)" fill="#DEFFFC"/>
<rect width="3.44059" height="3.44059" transform="matrix(-1 0 0 1 44.7227 68.8135)" fill="#58E0D5"/>
<rect width="3.44059" height="3.44059" transform="matrix(-1 0 0 1 51.6055 68.8135)" fill="#D61713"/>
<rect x="13.7617" y="68.8135" width="3.44059" height="3.44059" fill="#D61713"/>
<rect width="3.44059" height="3.44059" transform="matrix(-1 0 0 1 44.7227 72.2529)" fill="#DEFFFC"/>
<rect width="3.44059" height="3.44059" transform="matrix(-1 0 0 1 44.7227 75.6953)" fill="#58E0D5"/>
<rect width="3.44059" height="3.44059" transform="matrix(-1 0 0 1 44.7227 79.1348)" fill="#DEFFFC"/>
<rect width="3.44059" height="3.44059" transform="matrix(-1 0 0 1 48.166 34.4082)" fill="#DEFFFC"/>
<rect width="3.44059" height="3.44059" transform="matrix(-1 0 0 1 48.166 37.8477)" fill="#DEFFFC"/>
<rect width="3.44059" height="3.44059" transform="matrix(-1 0 0 1 48.166 41.2891)" fill="#DEFFFC"/>
<rect width="3.44059" height="3.44059" transform="matrix(-1 0 0 1 48.166 44.7285)" fill="#DEFFFC"/>
<rect width="3.44059" height="3.44059" transform="matrix(-1 0 0 1 48.166 48.1699)" fill="#DEFFFC"/>
<rect width="3.44059" height="3.44059" transform="matrix(-1 0 0 1 48.166 51.6113)" fill="#DEFFFC"/>
<rect width="3.44059" height="3.44059" transform="matrix(-1 0 0 1 48.166 55.0498)" fill="#DEFFFC"/>
<rect width="3.44059" height="3.44059" transform="matrix(-1 0 0 1 48.166 58.4912)" fill="#DEFFFC"/>
<rect width="3.44059" height="3.44059" transform="matrix(-1 0 0 1 48.166 61.9326)" fill="#DEFFFC"/>
<rect width="3.44059" height="3.44059" transform="matrix(-1 0 0 1 48.166 65.3721)" fill="#DEFFFC"/>
<rect width="3.44059" height="3.44059" transform="matrix(-1 0 0 1 51.6055 65.3721)" fill="#D61713"/>
<rect x="13.7617" y="65.3721" width="3.44059" height="3.44059" fill="#D61713"/>
<rect width="3.44059" height="3.44059" transform="matrix(-1 0 0 1 48.166 68.8135)" fill="#DEFFFC"/>
<rect width="3.44059" height="3.44059" transform="matrix(-1 0 0 1 55.0469 68.8135)" fill="#FF9E97"/>
<rect x="10.3184" y="68.8135" width="3.44059" height="3.44059" fill="#FF9E97"/>
<rect width="3.44059" height="3.44059" transform="matrix(-1 0 0 1 55.0469 72.2529)" fill="#F94538"/>
<rect x="10.3184" y="72.2529" width="3.44059" height="3.44059" fill="#F94538"/>
<rect width="3.44059" height="3.44059" transform="matrix(-1 0 0 1 51.6055 72.2529)" fill="#D61713"/>
<rect x="13.7617" y="72.2529" width="3.44059" height="3.44059" fill="#D61713"/>
<rect width="3.44059" height="3.44059" transform="matrix(-1 0 0 1 58.4902 72.2529)" fill="#FF9E97"/>
<rect x="6.88281" y="72.2529" width="3.44059" height="3.44059" fill="#FF9E97"/>
<rect width="3.44059" height="3.44059" transform="matrix(-1 0 0 1 58.4902 75.6953)" fill="#F94538"/>
<rect x="6.88281" y="75.6953" width="3.44059" height="3.44059" fill="#F94538"/>
<rect width="3.44059" height="3.44059" transform="matrix(-1 0 0 1 58.4902 79.1348)" fill="#F94538"/>
<rect x="6.88281" y="79.1348" width="3.44059" height="3.44059" fill="#F94538"/>
<rect width="3.44059" height="3.44059" transform="matrix(-1 0 0 1 55.0469 79.1348)" fill="#D61713"/>
<rect x="10.3184" y="79.1348" width="3.44059" height="3.44059" fill="#D61713"/>
<rect width="3.44059" height="3.44059" transform="matrix(-1 0 0 1 51.6055 79.1348)" fill="#D61713"/>
<rect x="13.7617" y="79.1348" width="3.44059" height="3.44059" fill="#D61713"/>
<rect width="3.44059" height="3.44059" transform="matrix(-1 0 0 1 61.9258 79.1348)" fill="#F94538"/>
<rect x="3.43555" y="79.1348" width="3.44059" height="3.44059" fill="#F94538"/>
<rect width="3.44059" height="3.44059" transform="matrix(-1 0 0 1 65.3691 79.1348)" fill="#FE9D96"/>
<rect y="79.1348" width="3.44059" height="3.44059" fill="#FE9D96"/>
<rect width="3.44059" height="3.44059" transform="matrix(-1 0 0 1 65.3691 82.5752)" fill="#FE9D96"/>
<rect y="82.5752" width="3.44059" height="3.44059" fill="#FE9D96"/>
<rect width="3.44059" height="3.44059" transform="matrix(-1 0 0 1 65.3691 86.0166)" fill="#F94538"/>
<rect y="86.0166" width="3.44059" height="3.44059" fill="#F94538"/>
<rect width="3.44059" height="3.44059" transform="matrix(-1 0 0 1 61.9258 86.0166)" fill="#D61713"/>
<rect x="3.43555" y="86.0166" width="3.44059" height="3.44059" fill="#D61713"/>
<rect width="3.44059" height="3.44059" transform="matrix(-1 0 0 1 58.4902 86.0166)" fill="#F94538"/>
<rect x="6.88281" y="86.0166" width="3.44059" height="3.44059" fill="#F94538"/>
<rect width="3.44059" height="3.44059" transform="matrix(-1 0 0 1 55.0469 86.0166)" fill="#D61713"/>
<rect x="10.3184" y="86.0166" width="3.44059" height="3.44059" fill="#D61713"/>
<rect width="3.44059" height="3.44059" transform="matrix(-1 0 0 1 51.6055 86.0166)" fill="#D61713"/>
<rect x="13.7617" y="86.0166" width="3.44059" height="3.44059" fill="#D61713"/>
<rect width="3.44059" height="3.44059" transform="matrix(-1 0 0 1 65.3691 89.4561)" fill="#FF9E97"/>
<rect y="89.4561" width="3.44059" height="3.44059" fill="#FF9E97"/>
<rect width="3.44059" height="3.44059" transform="matrix(-1 0 0 1 65.3691 92.8975)" fill="#FE9D96"/>
<rect y="92.8975" width="3.44059" height="3.44059" fill="#FE9D96"/>
<rect width="3.44059" height="3.44059" transform="matrix(-1 0 0 1 65.3691 96.3379)" fill="#F94538"/>
<rect y="96.3379" width="3.44059" height="3.44059" fill="#F94538"/>
<rect width="3.44059" height="3.44059" transform="matrix(-1 0 0 1 61.9258 92.8975)" fill="#D61713"/>
<rect x="3.43555" y="92.8975" width="3.44059" height="3.44059" fill="#D61713"/>
<rect width="3.44059" height="3.44059" transform="matrix(-1 0 0 1 61.9258 89.4561)" fill="#F94538"/>
<rect x="3.43555" y="89.4561" width="3.44059" height="3.44059" fill="#F94538"/>
<rect width="3.44059" height="3.44059" transform="matrix(-1 0 0 1 58.4902 89.4561)" fill="#D61713"/>
<rect x="6.88281" y="89.4561" width="3.44059" height="3.44059" fill="#D61713"/>
<rect width="3.44059" height="3.44059" transform="matrix(-1 0 0 1 61.9258 82.5752)" fill="#F94538"/>
<rect x="3.43555" y="82.5752" width="3.44059" height="3.44059" fill="#F94538"/>
<rect width="3.44059" height="3.44059" transform="matrix(-1 0 0 1 58.4902 82.5752)" fill="#D61713"/>
<rect x="6.88281" y="82.5752" width="3.44059" height="3.44059" fill="#D61713"/>
<rect width="3.44059" height="3.44059" transform="matrix(-1 0 0 1 55.0469 82.5752)" fill="#F94538"/>
<rect x="10.3184" y="82.5752" width="3.44059" height="3.44059" fill="#F94538"/>
<rect width="3.44059" height="3.44059" transform="matrix(-1 0 0 1 51.6055 82.5752)" fill="#D61713"/>
<rect x="13.7617" y="82.5752" width="3.44059" height="3.44059" fill="#D61713"/>
<rect width="3.44059" height="3.44059" transform="matrix(-1 0 0 1 48.166 82.5752)" fill="#D61713"/>
<rect width="3.44059" height="3.44059" transform="matrix(-1 0 0 1 44.7227 82.5752)" fill="#58E0D5"/>
<rect width="3.44059" height="3.44059" transform="matrix(-1 0 0 1 44.7227 86.0166)" fill="#58E0D5"/>
<rect width="3.44059" height="3.44059" transform="matrix(-1 0 0 1 41.2871 82.5752)" fill="#58E0D5"/>
<rect width="3.44059" height="3.44059" transform="matrix(-1 0 0 1 41.2871 86.0166)" fill="#58E0D5"/>
<rect width="3.44059" height="3.44059" transform="matrix(-1 0 0 1 41.2871 89.4561)" fill="#58E0D5"/>
<rect width="3.44059" height="3.44059" transform="matrix(-1 0 0 1 30.9648 89.4561)" fill="#32B1B7"/>
<rect width="3.44059" height="3.44059" transform="matrix(-1 0 0 1 41.2871 92.8975)" fill="#58E0D5"/>
<rect width="3.44059" height="3.44059" transform="matrix(-1 0 0 1 30.9648 92.8975)" fill="#32B1B7"/>
<rect width="3.44059" height="3.44059" transform="matrix(-1 0 0 1 37.8438 82.5752)" fill="#58E0D5"/>
<rect width="3.44059" height="3.44059" transform="matrix(-1 0 0 1 37.8438 86.0166)" fill="#58E0D5"/>
<rect width="3.44059" height="3.44059" transform="matrix(-1 0 0 1 37.8438 89.4561)" fill="#58E0D5"/>
<rect width="3.44059" height="3.44059" transform="matrix(-1 0 0 1 27.5215 89.4561)" fill="#32B1B7"/>
<rect width="3.44059" height="3.44059" transform="matrix(-1 0 0 1 37.8438 92.8975)" fill="#58E0D5"/>
<rect width="3.44059" height="3.44059" transform="matrix(-1 0 0 1 27.5215 92.8975)" fill="#32B1B7"/>
<rect width="3.44059" height="3.44059" transform="matrix(-1 0 0 1 34.4043 82.5752)" fill="#F94538"/>
<rect width="3.44059" height="3.44059" transform="matrix(-1 0 0 1 34.4043 86.0166)" fill="#F94538"/>
<rect width="3.44059" height="3.44059" transform="matrix(-1 0 0 1 34.4043 89.4561)" fill="#F94538"/>
<rect width="3.44059" height="3.44059" transform="matrix(-1 0 0 1 34.4043 92.8975)" fill="#F94538"/>
<rect width="3.44059" height="3.44059" transform="matrix(-1 0 0 1 34.4043 96.3379)" fill="#F94538"/>
<rect width="3.44059" height="3.44059" transform="matrix(-1 0 0 1 34.4043 103.22)" fill="#FFF2A6"/>
<rect width="3.44059" height="3.44059" transform="matrix(-1 0 0 1 34.4043 106.659)" fill="#FFF2A6"/>
<rect width="3.44059" height="3.44059" transform="matrix(-1 0 0 1 34.4043 110.101)" fill="#FFF2A6"/>
<rect width="3.44059" height="3.44059" transform="matrix(-1 0 0 1 34.4043 113.54)" fill="#FFF2A6"/>
<rect width="3.44059" height="3.44059" transform="matrix(-1 0 0 1 34.4043 116.981)" fill="#FFF2A6"/>
<rect width="3.44059" height="3.44059" transform="matrix(-1 0 0 1 34.4043 120.423)" fill="#FFF2A6"/>
<rect width="3.44059" height="3.44059" transform="matrix(-1 0 0 1 37.8438 103.22)" fill="#FFD85C"/>
<rect width="3.44059" height="3.44059" transform="matrix(-1 0 0 1 37.8438 106.659)" fill="#FFF2A6"/>
<rect width="3.44059" height="3.44059" transform="matrix(-1 0 0 1 37.8438 110.101)" fill="#FFF2A6"/>
<rect width="3.44059" height="3.44059" transform="matrix(-1 0 0 1 37.8438 113.54)" fill="#FFF2A6"/>
<rect width="3.44059" height="3.44059" transform="matrix(-1 0 0 1 37.8438 116.981)" fill="#FFF2A6"/>
<rect width="3.44059" height="3.44059" transform="matrix(-1 0 0 1 41.2871 113.54)" fill="#FFF2A6"/>
<rect width="3.44059" height="3.44059" transform="matrix(-1 0 0 1 41.2871 110.101)" fill="#FFD85C"/>
<rect width="3.44059" height="3.44059" transform="matrix(-1 0 0 1 41.2871 116.981)" fill="#FFD85C"/>
<rect width="3.44059" height="3.44059" transform="matrix(-1 0 0 1 41.2871 120.423)" fill="#FFD85C"/>
<rect width="3.44059" height="3.44059" transform="matrix(-1 0 0 1 37.8438 120.423)" fill="#FFD85C"/>
<rect width="3.44059" height="3.44059" transform="matrix(-1 0 0 1 30.9648 120.423)" fill="#FFD85C"/>
<rect width="3.44059" height="3.44059" transform="matrix(-1 0 0 1 30.9648 123.861)" fill="#FFD85C"/>
<rect width="3.44059" height="3.44059" transform="matrix(-1 0 0 1 34.4043 123.861)" fill="#FFD85C"/>
<rect width="3.44059" height="3.44059" transform="matrix(-1 0 0 1 34.4043 127.303)" fill="#FFD85C"/>
<rect width="3.44059" height="3.44059" transform="matrix(-1 0 0 1 37.8438 123.861)" fill="#FFD85C"/>
<rect width="3.44059" height="3.44059" transform="matrix(1 -8.74228e-08 -8.74228e-08 -1 24.0859 113.54)" fill="#FFD85C"/>
<rect width="3.44059" height="3.44059" transform="matrix(-1 0 0 1 44.7227 110.101)" fill="#FFAC27"/>
<rect width="3.44059" height="3.44059" transform="matrix(-1 0 0 1 44.7227 113.54)" fill="#FFAC27"/>
<rect width="3.44059" height="3.44059" transform="matrix(-1 0 0 1 24.0859 113.54)" fill="#FFAC27"/>
<rect width="3.44059" height="3.44059" transform="matrix(-1 0 0 1 44.7227 116.981)" fill="#FFAC27"/>
<rect width="3.44059" height="3.44059" transform="matrix(-1 0 0 1 27.5215 116.981)" fill="#FFD85C"/>
<rect width="3.44059" height="3.44059" transform="matrix(-1 0 0 1 27.5215 120.423)" fill="#FFD85C"/>
<rect width="3.44059" height="3.44059" transform="matrix(-1 0 0 1 24.0859 116.981)" fill="#FFAC27"/>
<rect width="3.44059" height="3.44059" transform="matrix(-1 0 0 1 44.7227 120.423)" fill="#FFAC27"/>
<rect width="3.44059" height="3.44059" transform="matrix(-1 0 0 1 41.2871 123.861)" fill="#FFAC27"/>
<rect width="3.44059" height="3.44059" transform="matrix(-1 0 0 1 41.2871 127.303)" fill="#FFAC27"/>
<rect width="3.44059" height="3.44059" transform="matrix(-1 0 0 1 37.8438 127.303)" fill="#FFAC27"/>
<rect width="3.44059" height="3.44059" transform="matrix(-1 0 0 1 37.8438 130.744)" fill="#FFAC27"/>
<rect width="3.44059" height="3.44059" transform="matrix(-1 0 0 1 34.4043 130.744)" fill="#FFAC27"/>
<rect width="3.44059" height="3.44059" transform="matrix(-1 0 0 1 34.4043 134.185)" fill="#FFAC27"/>
<rect width="3.44059" height="3.44059" transform="matrix(-1 0 0 1 30.9648 130.744)" fill="#FFAC27"/>
<rect width="3.44059" height="3.44059" transform="matrix(-1 0 0 1 30.9648 127.303)" fill="#FFAC27"/>
<rect width="3.44059" height="3.44059" transform="matrix(-1 0 0 1 27.5215 127.303)" fill="#FFAC27"/>
<rect width="3.44059" height="3.44059" transform="matrix(-1 0 0 1 27.5215 123.861)" fill="#FFAC27"/>
<rect width="3.44059" height="3.44059" transform="matrix(-1 0 0 1 24.0859 120.423)" fill="#FFAC27"/>
<rect width="3.44059" height="3.44059" transform="matrix(1 -8.74228e-08 -8.74228e-08 -1 20.6367 113.54)" fill="#FFAC27"/>
<rect width="3.44059" height="3.44059" transform="matrix(-1 0 0 1 41.2871 106.659)" fill="#FFAC27"/>
<rect width="3.44059" height="3.44059" transform="matrix(-1 0 0 1 27.5215 106.659)" fill="#FFAC27"/>
<rect width="3.44059" height="3.44059" transform="matrix(-1 0 0 1 30.9648 103.22)" fill="#FFD85C"/>
<rect width="3.44059" height="3.44059" transform="matrix(-1 0 0 1 30.9648 106.659)" fill="#FFF2A6"/>
<rect width="3.44059" height="3.44059" transform="matrix(-1 0 0 1 30.9648 110.101)" fill="#FFF2A6"/>
<rect width="3.44059" height="3.44059" transform="matrix(-1 0 0 1 30.9648 113.54)" fill="#FFF2A6"/>
<rect width="3.44059" height="3.44059" transform="matrix(-1 0 0 1 30.9648 116.981)" fill="#FFF2A6"/>
<rect width="3.44059" height="3.44059" transform="matrix(-1 0 0 1 27.5215 113.54)" fill="#FFF2A6"/>
<rect width="3.44059" height="3.44059" transform="matrix(-1 0 0 1 30.9648 82.5752)" fill="#58E0D5"/>
<rect width="3.44059" height="3.44059" transform="matrix(-1 0 0 1 30.9648 86.0166)" fill="#58E0D5"/>
<rect width="3.44059" height="3.44059" transform="matrix(-1 0 0 1 27.5215 82.5752)" fill="#32B1B7"/>
<rect width="3.44059" height="3.44059" transform="matrix(-1 0 0 1 27.5215 86.0166)" fill="#32B1B7"/>
<rect width="3.44059" height="3.44059" transform="matrix(-1 0 0 1 24.0859 82.5752)" fill="#1B8293"/>
<rect width="3.44059" height="3.44059" transform="matrix(-1 0 0 1 24.0859 86.0166)" fill="#1B8293"/>
<rect x="17.2012" y="82.5752" width="3.44059" height="3.44059" fill="#D61713"/>
<rect width="3.44059" height="3.44059" transform="matrix(-1 0 0 1 55.0469 75.6953)" fill="#F94538"/>
<rect x="10.3184" y="75.6953" width="3.44059" height="3.44059" fill="#F94538"/>
<rect width="3.44059" height="3.44059" transform="matrix(-1 0 0 1 51.6055 75.6953)" fill="#D61713"/>
<rect x="13.7617" y="75.6953" width="3.44059" height="3.44059" fill="#D61713"/>
<rect width="3.44059" height="3.44059" transform="matrix(-1 0 0 1 61.9258 75.6953)" fill="#FF9E97"/>
<rect x="3.43555" y="75.6953" width="3.44059" height="3.44059" fill="#FF9E97"/>
<rect width="3.44059" height="3.44059" transform="matrix(-1 0 0 1 48.166 72.2529)" fill="#DEFFFC"/>
<rect width="3.44059" height="3.44059" transform="matrix(-1 0 0 1 48.166 75.6953)" fill="#DEFFFC"/>
<rect width="3.44059" height="3.44059" transform="matrix(-1 0 0 1 48.166 79.1348)" fill="#DEFFFC"/>
<rect width="3.44059" height="3.44059" transform="matrix(-1 0 0 1 37.8438 20.6445)" fill="#F94538"/>
<rect width="3.44059" height="3.44059" transform="matrix(-1 0 0 1 37.8438 24.0859)" fill="#32B1B7"/>
<rect width="3.44059" height="3.44059" transform="matrix(-1 0 0 1 37.8438 27.5264)" fill="#58E0D5"/>
<rect width="3.44059" height="3.44059" transform="matrix(-1 0 0 1 37.8438 30.9658)" fill="#58E0D5"/>
<rect width="3.44059" height="3.44059" transform="matrix(-1 0 0 1 37.8438 34.4082)" fill="#F94538"/>
<rect width="3.44059" height="3.44059" transform="matrix(-1 0 0 1 37.8438 37.8477)" fill="#F94538"/>
<rect width="3.44059" height="3.44059" transform="matrix(-1 0 0 1 37.8438 41.2891)" fill="#DEFFFC"/>
<rect width="3.44059" height="3.44059" transform="matrix(-1 0 0 1 37.8438 44.7285)" fill="#F94538"/>
<rect width="3.44059" height="3.44059" transform="matrix(-1 0 0 1 37.8438 48.1699)" fill="#F94538"/>
<rect width="3.44059" height="3.44059" transform="matrix(-1 0 0 1 37.8438 51.6113)" fill="#58E0D5"/>
<rect width="3.44059" height="3.44059" transform="matrix(-1 0 0 1 37.8438 55.0498)" fill="#58E0D5"/>
<rect width="3.44059" height="3.44059" transform="matrix(-1 0 0 1 37.8438 58.4912)" fill="#58E0D5"/>
<rect width="3.44059" height="3.44059" transform="matrix(-1 0 0 1 37.8438 61.9326)" fill="#58E0D5"/>
<rect width="3.44059" height="3.44059" transform="matrix(-1 0 0 1 37.8438 65.3721)" fill="#58E0D5"/>
<rect width="3.44059" height="3.44059" transform="matrix(-1 0 0 1 37.8438 68.8135)" fill="#58E0D5"/>
<rect width="3.44059" height="3.44059" transform="matrix(-1 0 0 1 37.8438 72.2529)" fill="#58E0D5"/>
<rect width="3.44059" height="3.44059" transform="matrix(-1 0 0 1 37.8438 75.6953)" fill="#58E0D5"/>
<rect width="3.44059" height="3.44059" transform="matrix(-1 0 0 1 37.8438 79.1348)" fill="#58E0D5"/>
<rect width="3.44059" height="3.44059" transform="matrix(-1 0 0 1 30.9648 17.2051)" fill="#D61713"/>
<rect width="3.44059" height="3.44059" transform="matrix(-1 0 0 1 27.5215 17.2051)" fill="#D61713"/>
<rect width="3.44059" height="3.44059" transform="matrix(-1 0 0 1 34.4043 20.6445)" fill="#F94538"/>
<rect width="3.44059" height="3.44059" transform="matrix(-1 0 0 1 34.4043 24.0859)" fill="#32B1B7"/>
<rect width="3.44059" height="3.44059" transform="matrix(-1 0 0 1 34.4043 27.5264)" fill="#58E0D5"/>
<rect width="3.44059" height="3.44059" transform="matrix(-1 0 0 1 34.4043 30.9658)" fill="#58E0D5"/>
<rect width="3.44059" height="3.44059" transform="matrix(-1 0 0 1 34.4043 34.4082)" fill="#D61713"/>
<rect width="3.44059" height="3.44059" transform="matrix(-1 0 0 1 34.4043 37.8477)" fill="#DEFFFC"/>
<rect width="3.44059" height="3.44059" transform="matrix(-1 0 0 1 34.4043 41.2891)" fill="#DEFFFC"/>
<rect width="3.44059" height="3.44059" transform="matrix(-1 0 0 1 34.4043 44.7285)" fill="#58E0D5"/>
<rect width="3.44059" height="3.44059" transform="matrix(-1 0 0 1 34.4043 48.1699)" fill="#F94538"/>
<rect width="3.44059" height="3.44059" transform="matrix(-1 0 0 1 34.4043 51.6113)" fill="#58E0D5"/>
<rect width="3.44059" height="3.44059" transform="matrix(-1 0 0 1 34.4043 55.0498)" fill="#58E0D5"/>
<rect width="3.44059" height="3.44059" transform="matrix(-1 0 0 1 34.4043 58.4912)" fill="#58E0D5"/>
<rect width="3.44059" height="3.44059" transform="matrix(-1 0 0 1 34.4043 61.9326)" fill="#58E0D5"/>
<rect width="3.44059" height="3.44059" transform="matrix(-1 0 0 1 34.4043 65.3721)" fill="#F94538"/>
<rect width="3.44059" height="3.44059" transform="matrix(-1 0 0 1 34.4043 68.8135)" fill="#F94538"/>
<rect width="3.44059" height="3.44059" transform="matrix(-1 0 0 1 34.4043 72.2529)" fill="#F94538"/>
<rect width="3.44059" height="3.44059" transform="matrix(-1 0 0 1 34.4043 75.6953)" fill="#F94538"/>
<rect width="3.44059" height="3.44059" transform="matrix(-1 0 0 1 34.4043 79.1348)" fill="#F94538"/>
<rect width="3.44059" height="3.44059" transform="matrix(-1 0 0 1 30.9648 20.6445)" fill="#F94538"/>
<rect width="3.44059" height="3.44059" transform="matrix(-1 0 0 1 30.9648 24.0859)" fill="#32B1B7"/>
<rect width="3.44059" height="3.44059" transform="matrix(-1 0 0 1 30.9648 27.5264)" fill="#58E0D5"/>
<rect width="3.44059" height="3.44059" transform="matrix(-1 0 0 1 30.9648 30.9658)" fill="#58E0D5"/>
<rect width="3.44059" height="3.44059" transform="matrix(-1 0 0 1 30.9648 34.4082)" fill="#D61713"/>
<rect width="3.44059" height="3.44059" transform="matrix(-1 0 0 1 30.9648 37.8477)" fill="#D61713"/>
<rect width="3.44059" height="3.44059" transform="matrix(-1 0 0 1 30.9648 41.2891)" fill="#58E0D5"/>
<rect width="3.44059" height="3.44059" transform="matrix(-1 0 0 1 30.9648 44.7285)" fill="#D61713"/>
<rect width="3.44059" height="3.44059" transform="matrix(-1 0 0 1 30.9648 48.1699)" fill="#D61713"/>
<rect width="3.44059" height="3.44059" transform="matrix(-1 0 0 1 30.9648 51.6113)" fill="#58E0D5"/>
<rect width="3.44059" height="3.44059" transform="matrix(-1 0 0 1 30.9648 55.0498)" fill="#58E0D5"/>
<rect width="3.44059" height="3.44059" transform="matrix(-1 0 0 1 30.9648 58.4912)" fill="#58E0D5"/>
<rect width="3.44059" height="3.44059" transform="matrix(-1 0 0 1 30.9648 61.9326)" fill="#58E0D5"/>
<rect width="3.44059" height="3.44059" transform="matrix(-1 0 0 1 30.9648 65.3721)" fill="#58E0D5"/>
<rect width="3.44059" height="3.44059" transform="matrix(-1 0 0 1 30.9648 68.8135)" fill="#58E0D5"/>
<rect width="3.44059" height="3.44059" transform="matrix(-1 0 0 1 30.9648 72.2529)" fill="#58E0D5"/>
<rect width="3.44059" height="3.44059" transform="matrix(-1 0 0 1 30.9648 75.6953)" fill="#58E0D5"/>
<rect width="3.44059" height="3.44059" transform="matrix(-1 0 0 1 30.9648 79.1348)" fill="#58E0D5"/>
<rect width="3.44059" height="3.44059" transform="matrix(-1 0 0 1 27.5215 20.6445)" fill="#D61713"/>
<rect width="3.44059" height="3.44059" transform="matrix(-1 0 0 1 27.5215 24.0859)" fill="#32B1B7"/>
<rect width="3.44059" height="3.44059" transform="matrix(-1 0 0 1 27.5215 27.5264)" fill="#32B0B6"/>
<rect width="3.44059" height="3.44059" transform="matrix(-1 0 0 1 27.5215 30.9658)" fill="#32B0B6"/>
<rect width="3.44059" height="3.44059" transform="matrix(-1 0 0 1 27.5215 34.4082)" fill="#32B0B6"/>
<rect width="3.44059" height="3.44059" transform="matrix(-1 0 0 1 27.5215 37.8477)" fill="#D61713"/>
<rect width="3.44059" height="3.44059" transform="matrix(-1 0 0 1 27.5215 41.2891)" fill="#D61713"/>
<rect width="3.44059" height="3.44059" transform="matrix(-1 0 0 1 27.5215 44.7285)" fill="#D61713"/>
<rect width="3.44059" height="3.44059" transform="matrix(-1 0 0 1 27.5215 48.1699)" fill="#58E0D5"/>
<rect width="3.44059" height="3.44059" transform="matrix(-1 0 0 1 27.5215 51.6113)" fill="#58E0D5"/>
<rect width="3.44059" height="3.44059" transform="matrix(-1 0 0 1 27.5215 55.0498)" fill="#58E0D5"/>
<rect width="3.44059" height="3.44059" transform="matrix(-1 0 0 1 27.5215 58.4912)" fill="#32B0B6"/>
<rect width="3.44059" height="3.44059" transform="matrix(-1 0 0 1 27.5215 61.9326)" fill="#58E0D5"/>
<rect width="3.44059" height="3.44059" transform="matrix(-1 0 0 1 27.5215 65.3721)" fill="#32B0B6"/>
<rect width="3.44059" height="3.44059" transform="matrix(-1 0 0 1 27.5215 68.8135)" fill="#58E0D5"/>
<rect width="3.44059" height="3.44059" transform="matrix(-1 0 0 1 27.5215 72.2529)" fill="#32B0B6"/>
<rect width="3.44059" height="3.44059" transform="matrix(-1 0 0 1 27.5215 75.6953)" fill="#58E0D5"/>
<rect width="3.44059" height="3.44059" transform="matrix(-1 0 0 1 27.5215 79.1348)" fill="#32B1B7"/>
<rect width="3.44059" height="3.44059" transform="matrix(-1 0 0 1 24.0859 24.0859)" fill="#1B8293"/>
<rect width="3.44059" height="3.44059" transform="matrix(-1 0 0 1 24.0859 27.5264)" fill="#1B8293"/>
<rect width="3.44059" height="3.44059" transform="matrix(-1 0 0 1 24.0859 30.9658)" fill="#1B8293"/>
<rect width="3.44059" height="3.44059" transform="matrix(-1 0 0 1 24.0859 34.4082)" fill="#1B8293"/>
<rect width="3.44059" height="3.44059" transform="matrix(-1 0 0 1 24.0859 37.8477)" fill="#32B1B7"/>
<rect width="3.44059" height="3.44059" transform="matrix(-1 0 0 1 24.0859 41.2891)" fill="#32B1B7"/>
<rect width="3.44059" height="3.44059" transform="matrix(-1 0 0 1 24.0859 44.7285)" fill="#32B1B7"/>
<rect width="3.44059" height="3.44059" transform="matrix(-1 0 0 1 24.0859 48.1699)" fill="#32B1B7"/>
<rect width="3.44059" height="3.44059" transform="matrix(-1 0 0 1 24.0859 51.6113)" fill="#32B1B7"/>
<rect width="3.44059" height="3.44059" transform="matrix(-1 0 0 1 24.0859 55.0498)" fill="#32B1B7"/>
<rect width="3.44059" height="3.44059" transform="matrix(-1 0 0 1 24.0859 58.4912)" fill="#32B1B7"/>
<rect width="3.44059" height="3.44059" transform="matrix(-1 0 0 1 24.0859 61.9326)" fill="#32B1B7"/>
<rect width="3.44059" height="3.44059" transform="matrix(-1 0 0 1 24.0859 65.3721)" fill="#32B1B7"/>
<rect width="3.44059" height="3.44059" transform="matrix(-1 0 0 1 24.0859 68.8135)" fill="#32B1B7"/>
<rect width="3.44059" height="3.44059" transform="matrix(-1 0 0 1 24.0859 72.2529)" fill="#32B1B7"/>
<rect width="3.44059" height="3.44059" transform="matrix(-1 0 0 1 24.0859 75.6953)" fill="#32B1B7"/>
<rect width="3.44059" height="3.44059" transform="matrix(-1 0 0 1 24.0859 79.1348)" fill="#32B1B7"/>
<rect width="3.44059" height="3.44059" transform="matrix(-1 0 0 1 20.6367 34.4082)" fill="#1B8293"/>
<rect width="3.44059" height="3.44059" transform="matrix(-1 0 0 1 20.6367 37.8477)" fill="#1B8293"/>
<rect width="3.44059" height="3.44059" transform="matrix(-1 0 0 1 20.6367 41.2891)" fill="#1B8293"/>
<rect width="3.44059" height="3.44059" transform="matrix(-1 0 0 1 20.6367 44.7285)" fill="#1B8293"/>
<rect width="3.44059" height="3.44059" transform="matrix(-1 0 0 1 20.6367 48.1699)" fill="#1B8293"/>
<rect width="3.44059" height="3.44059" transform="matrix(-1 0 0 1 20.6367 51.6113)" fill="#1B8293"/>
<rect width="3.44059" height="3.44059" transform="matrix(-1 0 0 1 20.6367 55.0498)" fill="#1B8293"/>
<rect width="3.44059" height="3.44059" transform="matrix(-1 0 0 1 20.6367 58.4912)" fill="#1B8293"/>
<rect width="3.44059" height="3.44059" transform="matrix(-1 0 0 1 20.6367 61.9326)" fill="#1B8293"/>
<rect width="3.44059" height="3.44059" transform="matrix(-1 0 0 1 20.6367 65.3721)" fill="#1B8293"/>
<rect width="3.44059" height="3.44059" transform="matrix(-1 0 0 1 20.6367 68.8135)" fill="#1B8293"/>
<rect width="3.44059" height="3.44059" transform="matrix(-1 0 0 1 20.6367 72.2529)" fill="#1B8293"/>
<rect width="3.44059" height="3.44059" transform="matrix(-1 0 0 1 20.6367 75.6953)" fill="#1B8293"/>
<rect width="3.44059" height="3.44059" transform="matrix(-1 0 0 1 20.6367 79.1348)" fill="#1B8293"/>
</svg>
