<svg width="29" height="28" viewBox="0 0 29 28" fill="none" xmlns="http://www.w3.org/2000/svg">
<path fill-rule="evenodd" clip-rule="evenodd" d="M20.9679 14.171C20.5385 14.171 20.164 13.8548 20.1022 13.4173C20.0357 12.9378 20.3682 12.4956 20.8477 12.4291C22.061 12.2588 22.9769 11.2065 22.9792 9.97913C22.9792 8.7623 22.1065 7.7333 20.9037 7.53613C20.4277 7.45796 20.1045 7.00763 20.1827 6.53046C20.262 6.0533 20.7089 5.73363 21.1884 5.80946C23.2394 6.14663 24.7292 7.9013 24.7292 9.98146C24.7245 12.0756 23.16 13.8723 21.0892 14.1628C21.0484 14.1686 21.0075 14.171 20.9679 14.171" fill="#78797E"/>
<mask id="mask0_352_6168" style="mask-type:luminance" maskUnits="userSpaceOnUse" x="22" y="16" width="5" height="6">
<path fill-rule="evenodd" clip-rule="evenodd" d="M22.2422 16.3352H26.6685V21.6197H22.2422V16.3352Z" fill="white"/>
</mask>
<g mask="url(#mask0_352_6168)">
<path fill-rule="evenodd" clip-rule="evenodd" d="M24.4393 21.6197C24.087 21.6197 23.7545 21.405 23.6215 21.0562C23.4488 20.6047 23.6763 20.0984 24.1278 19.9269C24.9188 19.6259 24.9188 19.2934 24.9188 19.1335C24.9188 18.6225 24.269 18.2655 22.988 18.0742C22.5108 18.0019 22.1807 17.5574 22.2518 17.0779C22.323 16.5995 22.7663 16.281 23.2482 16.3429C26.075 16.7664 26.6688 18.094 26.6688 19.1335C26.6688 19.7682 26.4192 20.9267 24.7508 21.5625C24.6482 21.601 24.5432 21.6197 24.4393 21.6197" fill="#78797E"/>
</g>
<path fill-rule="evenodd" clip-rule="evenodd" d="M13.9678 18.5664C11.1958 18.5664 7.89063 18.9071 7.89063 20.5287C7.89063 22.1632 11.1958 22.5062 13.9678 22.5062C16.7398 22.5062 20.0438 22.1667 20.0438 20.5486C20.0438 18.9106 16.7398 18.5664 13.9678 18.5664M13.9678 24.2562C12.0323 24.2562 6.14062 24.2562 6.14062 20.5287C6.14062 16.8164 12.0323 16.8164 13.9678 16.8164C15.9033 16.8164 21.7938 16.8164 21.7938 20.5486C21.7938 24.2562 16.1086 24.2562 13.9678 24.2562" fill="#78797E"/>
<path fill-rule="evenodd" clip-rule="evenodd" d="M13.9681 6.41675C11.9941 6.41675 10.3887 8.02325 10.3887 9.99725C10.3852 10.9539 10.7516 11.8487 11.4224 12.5242C12.0932 13.1997 12.9869 13.5742 13.9389 13.5777L13.9681 14.4527V13.5777C15.9421 13.5777 17.5486 11.9724 17.5486 9.99725C17.5486 8.02325 15.9421 6.41675 13.9681 6.41675M13.9681 15.3277H13.9366C12.5132 15.3231 11.1797 14.7654 10.1811 13.7574C9.18005 12.7506 8.63288 11.4136 8.63872 9.99375C8.63872 7.05841 11.0292 4.66675 13.9681 4.66675C16.9081 4.66675 19.2986 7.05841 19.2986 9.99725C19.2986 12.9361 16.9081 15.3277 13.9681 15.3277" fill="#78797E"/>
<path fill-rule="evenodd" clip-rule="evenodd" d="M6.9672 14.1709C6.92753 14.1709 6.8867 14.1686 6.84586 14.1628C4.77503 13.8723 3.2117 12.0756 3.20703 9.98377C3.20703 7.90127 4.69686 6.14661 6.74786 5.80944C7.23903 5.73244 7.6742 6.05561 7.75353 6.53044C7.8317 7.00761 7.50853 7.45794 7.03253 7.53611C5.8297 7.73327 4.95703 8.76227 4.95703 9.98144C4.95936 11.2064 5.8752 12.2599 7.08736 12.4291C7.56686 12.4956 7.89936 12.9378 7.83286 13.4173C7.77103 13.8548 7.39653 14.1709 6.9672 14.1709" fill="#78797E"/>
<path fill-rule="evenodd" clip-rule="evenodd" d="M3.49824 21.6197C3.39441 21.6197 3.28941 21.601 3.18674 21.5625C1.51724 20.9255 1.26758 19.767 1.26758 19.1335C1.26758 18.0952 1.86141 16.7664 4.68941 16.3429C5.17124 16.2822 5.61224 16.5995 5.68458 17.0779C5.75574 17.5574 5.42558 18.0019 4.94841 18.0742C3.66741 18.2655 3.01758 18.6225 3.01758 19.1335C3.01758 19.2934 3.01758 19.6247 3.80974 19.9269C4.26124 20.0984 4.48874 20.6047 4.31608 21.0562C4.18308 21.405 3.85058 21.6197 3.49824 21.6197" fill="#78797E"/>
</svg>
