<svg width="29" height="28" viewBox="0 0 29 28" fill="none" xmlns="http://www.w3.org/2000/svg">
<path fill-rule="evenodd" clip-rule="evenodd" d="M9.20703 20.4897C8.72403 20.4897 8.33203 20.0977 8.33203 19.6147V11.6113C8.33203 11.1283 8.72403 10.7363 9.20703 10.7363C9.69003 10.7363 10.082 11.1283 10.082 11.6113V19.6147C10.082 20.0977 9.69003 20.4897 9.20703 20.4897" fill="#78797E"/>
<path fill-rule="evenodd" clip-rule="evenodd" d="M14.6523 20.4885C14.1693 20.4885 13.7773 20.0965 13.7773 19.6135V7.78003C13.7773 7.29703 14.1693 6.90503 14.6523 6.90503C15.1353 6.90503 15.5273 7.29703 15.5273 7.78003V19.6135C15.5273 20.0965 15.1353 20.4885 14.6523 20.4885" fill="#78797E"/>
<path fill-rule="evenodd" clip-rule="evenodd" d="M20.0078 20.4886C19.5248 20.4886 19.1328 20.0966 19.1328 19.6136V15.8406C19.1328 15.3576 19.5248 14.9656 20.0078 14.9656C20.4908 14.9656 20.8828 15.3576 20.8828 15.8406V19.6136C20.8828 20.0966 20.4908 20.4886 20.0078 20.4886" fill="#78797E"/>
<path fill-rule="evenodd" clip-rule="evenodd" d="M9.14107 2.91675C5.90707 2.91675 3.81641 5.12992 3.81641 8.55758V18.8592C3.81641 22.2869 5.90707 24.5001 9.14107 24.5001H20.0751C23.3102 24.5001 25.3997 22.2869 25.3997 18.8592V8.55758C25.3997 5.12992 23.3102 2.91675 20.0751 2.91675H9.14107ZM20.0751 26.2501H9.14107C4.90957 26.2501 2.06641 23.2797 2.06641 18.8592V8.55758C2.06641 4.13708 4.90957 1.16675 9.14107 1.16675H20.0751C24.3066 1.16675 27.1497 4.13708 27.1497 8.55758V18.8592C27.1497 23.2797 24.3066 26.2501 20.0751 26.2501V26.2501Z" fill="#78797E"/>
</svg>
