{
    "asset" : {
        "generator" : "Khronos glTF Blender I/O v1.7.33",
        "version" : "2.0"
    },
    "scene" : 0,
    "scenes" : [
        {
            "name" : "Scene",
            "nodes" : [
                0
            ]
        }
    ],
    "nodes" : [
        {
            "mesh" : 0,
            "name" : "default.008"
        }
    ],
    "meshes" : [
        {
            "name" : "Mesh_0",
            "primitives" : [
                {
                    "attributes" : {
                        "POSITION" : 0,
                        "NORMAL" : 1,
                        "TEXCOORD_0" : 2
                    },
                    "indices" : 3
                }
            ]
        }
    ],
    "accessors" : [
        {
            "bufferView" : 0,
            "componentType" : 5126,
            "count" : 310,
            "max" : [
                9.494346618652344,
                27.881933212280273,
                27.726795196533203
            ],
            "min" : [
                -9.325874328613281,
                0.04349600151181221,
                -27.405345916748047
            ],
            "type" : "VEC3"
        },
        {
            "bufferView" : 1,
            "componentType" : 5126,
            "count" : 310,
            "type" : "VEC3"
        },
        {
            "bufferView" : 2,
            "componentType" : 5126,
            "count" : 310,
            "type" : "VEC2"
        },
        {
            "bufferView" : 3,
            "componentType" : 5123,
            "count" : 492,
            "type" : "SCALAR"
        }
    ],
    "bufferViews" : [
        {
            "buffer" : 0,
            "byteLength" : 3720,
            "byteOffset" : 0
        },
        {
            "buffer" : 0,
            "byteLength" : 3720,
            "byteOffset" : 3720
        },
        {
            "buffer" : 0,
            "byteLength" : 2480,
            "byteOffset" : 7440
        },
        {
            "buffer" : 0,
            "byteLength" : 984,
            "byteOffset" : 9920
        }
    ],
    "buffers" : [
        {
            "byteLength" : 10904,
            "uri" : "data:application/octet-stream;base64,"
        }
    ]
}
