{"accessors" : [{"bufferView" : 0, "byteOffset" : 0, "componentType" : 5123, "count" : 492, "type" : "SCALAR", "max" : [211], "min" : [0]}, {"bufferView" : 1, "byteOffset" : 0, "componentType" : 5126, "count" : 212, "type" : "VEC3", "max" : [9.494346618652344, 27.881933212280273, 27.726795196533203], "min" : [-9.325874328613281, 0.04349600151181221, -27.405345916748047], "name" : "POSITION"}, {"bufferView" : 1, "byteOffset" : 12, "componentType" : 5126, "count" : 212, "type" : "VEC2", "max" : [0.9966970086097717, 0.9958810210227966], "min" : [0.00184299994725734, 0.0009639859199523926], "name" : "TEXCOORD_0"}, {"bufferView" : 1, "byteOffset" : 20, "componentType" : 5126, "count" : 212, "type" : "VEC3", "max" : [1.0000044107437134, 1.0000044107437134, -0], "min" : [-1.0000044107437134, -0.7071098685264587, -1.0000044107437134], "name" : "NORMAL"}], "asset" : {"generator" : "Aspose.3D 24.4.1", "version" : "2.0"}, "buffers" : [{"uri" : "data:application/octet-stream;base64,", "byteLength" : 7776}], "bufferViews" : [{"buffer" : 0, "byteOffset" : 0, "byteLength" : 984, "target" : 34963}, {"buffer" : 0, "byteOffset" : 988, "byteLength" : 6784, "byteStride" : 32, "target" : 34962}], "meshes" : [{"primitives" : [{"attributes" : {"POSITION" : 1, "TEXCOORD_0" : 2, "NORMAL" : 3}, "indices" : 0, "mode" : 4}], "name" : ""}], "nodes" : [{"mesh" : 0, "name" : "default.008"}], "scene" : 0, "scenes" : [{"nodes" : [0]}]}